<svg width="32" height="32" viewBox="0 0 32 32" fill="none" xmlns="http://www.w3.org/2000/svg">
<path d="M27.8118 20.4414L22.7825 28.6481C22.2302 29.5547 21.4784 30.3235 20.5842 30.8958C19.69 31.4681 18.6771 31.8289 17.6225 31.9507C17.3446 31.9837 17.065 32.0002 16.7852 32.0001C15.3524 31.9981 13.9554 31.5534 12.7852 30.7267C11.5759 31.6327 10.0821 32.0755 8.57451 31.975C7.06688 31.8745 5.64512 31.2373 4.56683 30.1788C3.48854 29.1204 2.82505 27.7107 2.69657 26.2052C2.5681 24.6996 2.98314 23.1979 3.8665 21.9721L2.11316 20.2214C1.36449 19.4727 0.794916 18.5643 0.447097 17.5642C0.0992785 16.5642 -0.0177713 15.4984 0.104714 14.4467C0.227199 13.395 0.586045 12.3846 1.15438 11.4912C1.72271 10.5979 2.4858 9.84469 3.3865 9.28806L11.0758 4.53339C13.1588 3.19843 15.6083 2.55119 18.0788 2.68301C20.5493 2.81482 22.9161 3.71903 24.8452 5.26806L27.0572 3.05606C27.1802 2.92871 27.3273 2.82713 27.49 2.75726C27.6526 2.68738 27.8276 2.6506 28.0046 2.64906C28.1817 2.64752 28.3572 2.68125 28.5211 2.7483C28.685 2.81534 28.8338 2.91434 28.959 3.03953C29.0842 3.16472 29.1832 3.31359 29.2503 3.47745C29.3173 3.64131 29.351 3.81689 29.3495 3.99393C29.348 4.17097 29.3112 4.34593 29.2413 4.5086C29.1714 4.67127 29.0698 4.8184 28.9425 4.94139L26.7332 7.15206C28.215 9.00838 29.1092 11.2646 29.3013 13.6321C29.4935 15.9995 28.9749 18.3704 27.8118 20.4414V20.4414ZM10.7532 28.8627L5.7945 23.9027C5.407 24.5957 5.25754 25.3967 5.36905 26.1829C5.48057 26.969 5.84689 27.6968 6.41183 28.2547C6.98172 28.7961 7.70659 29.1457 8.48502 29.2547C9.26345 29.3637 10.0565 29.2267 10.7532 28.8627V28.8627ZM23.9812 8.06273C22.5006 6.56784 20.5515 5.62676 18.4601 5.39691C16.3687 5.16707 14.2617 5.66241 12.4918 6.80006L4.78916 11.5547C4.23055 11.9 3.75729 12.3672 3.40484 12.9213C3.05238 13.4754 2.82986 14.1021 2.75393 14.7544C2.678 15.4067 2.75064 16.0678 2.9664 16.688C3.18216 17.3083 3.53546 17.8717 3.99983 18.3361L13.7198 28.0574C14.1849 28.523 14.7496 28.8772 15.3713 29.0931C15.993 29.3091 16.6556 29.3813 17.3092 29.3043C17.9628 29.2273 18.5905 29.0031 19.145 28.6486C19.6994 28.294 20.1663 27.8184 20.5105 27.2574L25.5172 19.0907C26.495 17.3344 26.8741 15.3072 26.597 13.3162C26.3198 11.3251 25.4015 9.47859 23.9812 8.05606V8.06273ZM25.6865 32.0001C25.4049 32.0006 25.1304 31.9119 24.9023 31.7468C24.6742 31.5817 24.5042 31.3486 24.4167 31.081C24.3292 30.8134 24.3287 30.5249 24.4153 30.2569C24.5018 29.989 24.671 29.7553 24.8985 29.5894C27.2332 27.8341 28.8132 25.2569 29.3185 22.3801C29.3539 22.2069 29.4234 22.0425 29.523 21.8964C29.6225 21.7503 29.7501 21.6255 29.8984 21.5292C30.0466 21.4329 30.2125 21.367 30.3864 21.3354C30.5604 21.3038 30.7388 21.3071 30.9115 21.3451C31.0841 21.3832 31.2475 21.4551 31.392 21.5568C31.5366 21.6586 31.6595 21.788 31.7536 21.9377C31.8477 22.0873 31.911 22.2542 31.94 22.4286C31.969 22.6029 31.9631 22.7813 31.9225 22.9534C31.2692 26.4623 29.3244 29.5988 26.4718 31.7441C26.2437 31.9104 25.9688 32 25.6865 32.0001ZM1.33316 7.65206C1.0869 7.65096 0.845751 7.58168 0.636457 7.4519C0.427162 7.32212 0.257899 7.13692 0.147434 6.91682C0.0369699 6.69672 -0.0103795 6.45032 0.0106361 6.20496C0.0316517 5.95959 0.120211 5.72484 0.266495 5.52673C2.44114 2.62084 5.64225 0.653821 9.21716 0.026725C9.56371 -0.0439994 9.92416 0.0258391 10.2192 0.220877C10.5143 0.415915 10.7198 0.720175 10.7905 1.06673C10.8612 1.41327 10.7914 1.77373 10.5963 2.06878C10.4013 2.36384 10.097 2.56933 9.7505 2.64006C6.81446 3.12489 4.18014 4.72756 2.39983 7.11206C2.27633 7.27888 2.11559 7.41457 1.93041 7.50832C1.74523 7.60206 1.54072 7.65128 1.33316 7.65206V7.65206Z" fill="#00DE78"/>
</svg>
