<svg width="32" height="32" viewBox="0 0 32 32" fill="none" xmlns="http://www.w3.org/2000/svg">
<g clip-path="url(#clip0_50_1208)">
<path d="M25.3333 4.02933C25.3333 4.01867 25.3333 4.01067 25.3333 4V1.33333C25.3333 0.979711 25.1928 0.640573 24.9428 0.390524C24.6927 0.140476 24.3536 0 24 0C23.6464 0 23.3072 0.140476 23.0572 0.390524C22.8071 0.640573 22.6667 0.979711 22.6667 1.33333V2.8C22.2278 2.71089 21.7811 2.66622 21.3333 2.66667H20V1.33333C20 0.979711 19.8595 0.640573 19.6095 0.390524C19.3594 0.140476 19.0203 0 18.6667 0C18.313 0 17.9739 0.140476 17.7238 0.390524C17.4738 0.640573 17.3333 0.979711 17.3333 1.33333V2.66667H14.6667V1.33333C14.6667 0.979711 14.5262 0.640573 14.2761 0.390524C14.0261 0.140476 13.6869 0 13.3333 0C12.9797 0 12.6406 0.140476 12.3905 0.390524C12.1405 0.640573 12 0.979711 12 1.33333V2.66667H10.6667C10.2189 2.66622 9.77216 2.71089 9.33332 2.8V1.33333C9.33332 0.979711 9.19284 0.640573 8.94279 0.390524C8.69275 0.140476 8.35361 0 7.99998 0C7.64636 0 7.30722 0.140476 7.05718 0.390524C6.80713 0.640573 6.66665 0.979711 6.66665 1.33333V4V4.02933C5.84103 4.64583 5.17025 5.44605 4.7074 6.36665C4.24456 7.28724 4.00236 8.30294 3.99998 9.33333V25.3333C4.0021 27.1008 4.70516 28.7953 5.95494 30.045C7.20473 31.2948 8.89919 31.9979 10.6667 32H21.3333C23.1008 31.9979 24.7952 31.2948 26.045 30.045C27.2948 28.7953 27.9979 27.1008 28 25.3333V9.33333C27.9976 8.30294 27.7554 7.28724 27.2926 6.36665C26.8297 5.44605 26.1589 4.64583 25.3333 4.02933ZM25.3333 25.3333C25.3333 26.3942 24.9119 27.4116 24.1617 28.1618C23.4116 28.9119 22.3942 29.3333 21.3333 29.3333H10.6667C9.60579 29.3333 8.58837 28.9119 7.83822 28.1618C7.08808 27.4116 6.66665 26.3942 6.66665 25.3333V9.33333C6.66665 8.27247 7.08808 7.25505 7.83822 6.50491C8.58837 5.75476 9.60579 5.33333 10.6667 5.33333H21.3333C22.3942 5.33333 23.4116 5.75476 24.1617 6.50491C24.9119 7.25505 25.3333 8.27247 25.3333 9.33333V25.3333ZM22.6667 10.6667C22.6667 11.0203 22.5262 11.3594 22.2761 11.6095C22.0261 11.8595 21.6869 12 21.3333 12H10.6667C10.313 12 9.97389 11.8595 9.72384 11.6095C9.47379 11.3594 9.33332 11.0203 9.33332 10.6667C9.33332 10.313 9.47379 9.97391 9.72384 9.72386C9.97389 9.47381 10.313 9.33333 10.6667 9.33333H21.3333C21.6869 9.33333 22.0261 9.47381 22.2761 9.72386C22.5262 9.97391 22.6667 10.313 22.6667 10.6667ZM22.6667 16C22.6667 16.3536 22.5262 16.6928 22.2761 16.9428C22.0261 17.1929 21.6869 17.3333 21.3333 17.3333H10.6667C10.313 17.3333 9.97389 17.1929 9.72384 16.9428C9.47379 16.6928 9.33332 16.3536 9.33332 16C9.33332 15.6464 9.47379 15.3072 9.72384 15.0572C9.97389 14.8071 10.313 14.6667 10.6667 14.6667H21.3333C21.6869 14.6667 22.0261 14.8071 22.2761 15.0572C22.5262 15.3072 22.6667 15.6464 22.6667 16ZM17.3333 21.3333C17.3333 21.687 17.1928 22.0261 16.9428 22.2761C16.6927 22.5262 16.3536 22.6667 16 22.6667H10.6667C10.313 22.6667 9.97389 22.5262 9.72384 22.2761C9.47379 22.0261 9.33332 21.687 9.33332 21.3333C9.33332 20.9797 9.47379 20.6406 9.72384 20.3905C9.97389 20.1405 10.313 20 10.6667 20H16C16.3536 20 16.6927 20.1405 16.9428 20.3905C17.1928 20.6406 17.3333 20.9797 17.3333 21.3333Z" fill="#A8A8A8"/>
</g>
<defs>
<clipPath id="clip0_50_1208">
<rect width="32" height="32" fill="white"/>
</clipPath>
</defs>
</svg>
