<svg width="32" height="32" viewBox="0 0 32 32" fill="none" xmlns="http://www.w3.org/2000/svg">
<g clip-path="url(#clip0_58_1833)">
<path d="M31.9731 2.69729V8.03062C31.9731 8.38424 31.8327 8.72338 31.5826 8.97343C31.3326 9.22348 30.9934 9.36396 30.6398 9.36396C30.2862 9.36396 29.947 9.22348 29.697 8.97343C29.4469 8.72338 29.3065 8.38424 29.3065 8.03062V4.61329L22.2398 11.6426C21.9877 11.8849 21.6504 12.0184 21.3008 12.0144C20.9512 12.0104 20.6171 11.8693 20.3705 11.6213C20.124 11.3734 19.9847 11.0385 19.9827 10.6888C19.9807 10.3392 20.1161 10.0027 20.3598 9.75196L27.4531 2.69729H23.9731C23.6195 2.69729 23.2804 2.55681 23.0303 2.30677C22.7803 2.05672 22.6398 1.71758 22.6398 1.36396C22.6398 1.01033 22.7803 0.671195 23.0303 0.421147C23.2804 0.171098 23.6195 0.0306225 23.9731 0.0306225H29.3065C30.0137 0.0306225 30.692 0.311574 31.1921 0.811671C31.6922 1.31177 31.9731 1.99005 31.9731 2.69729ZM30.7665 22.3493C31.5391 23.1241 31.9731 24.1737 31.9731 25.268C31.9731 26.3622 31.5391 27.4118 30.7665 28.1866L29.5505 29.5866C18.6291 40.0373 -7.94287 13.4733 2.35046 2.51996L3.88246 1.18662C4.65858 0.43565 5.69892 0.020037 6.77884 0.0295166C7.85877 0.0389962 8.89164 0.472808 9.65446 1.23729C9.69446 1.27862 12.1651 4.48929 12.1651 4.48929C12.898 5.25922 13.3061 6.28191 13.3046 7.34489C13.3031 8.40787 12.8922 9.42941 12.1571 10.1973L10.6118 12.14C11.4663 14.2161 12.7225 16.103 14.3085 17.6921C15.8944 19.2812 17.7787 20.5413 19.8531 21.4L21.8065 19.8466C22.5743 19.112 23.5955 18.7013 24.6582 18.6998C25.7209 18.6983 26.7433 19.1061 27.5131 19.8386C27.5131 19.8386 30.7251 22.3093 30.7665 22.3493ZM28.9331 24.288C28.9331 24.288 25.7425 21.832 25.7011 21.792C25.4264 21.5196 25.0553 21.3668 24.6685 21.3668C24.2816 21.3668 23.9105 21.5196 23.6358 21.792C23.5998 21.8266 20.9105 23.9706 20.9105 23.9706C20.7292 24.1149 20.5135 24.2094 20.2847 24.245C20.0558 24.2805 19.8216 24.2558 19.6051 24.1733C16.9161 23.1733 14.4736 21.6065 12.4436 19.5792C10.4136 17.552 8.84343 15.1116 7.83979 12.424C7.75199 12.2054 7.72363 11.9676 7.75759 11.7346C7.79155 11.5015 7.88662 11.2817 8.03313 11.0973C8.03313 11.0973 10.1758 8.40796 10.2118 8.37196C10.4842 8.09727 10.637 7.72611 10.637 7.33929C10.637 6.95247 10.4842 6.58131 10.2118 6.30662C10.1718 6.26662 7.71579 3.07462 7.71579 3.07462C7.43716 2.82446 7.0734 2.69034 6.69906 2.69976C6.32472 2.70918 5.96816 2.86143 5.70246 3.12529L4.17046 4.45862C-3.35487 13.5013 19.6758 35.256 27.5998 27.768L28.8158 26.368C29.1025 26.1049 29.2752 25.7403 29.2971 25.3518C29.319 24.9633 29.1884 24.5816 28.9331 24.288Z" fill="white"/>
</g>
<defs>
<clipPath id="clip0_58_1833">
<rect width="32" height="32" fill="white"/>
</clipPath>
</defs>
</svg>
