<svg width="32" height="32" viewBox="0 0 32 32" fill="none" xmlns="http://www.w3.org/2000/svg">
<path d="M25.1469 23.8161H12.4394L11.7016 20.8646H28.3633L32 6.31781H8.06487L6.80513 1.27875H0V3.36625H5.17525L10.3132 23.9179C8.80994 24.2911 7.69212 25.6515 7.69212 27.2686C7.69212 29.1724 9.24094 30.7212 11.1447 30.7212C13.0484 30.7212 14.5972 29.1724 14.5972 27.2686C14.5972 26.7839 14.4964 26.3225 14.3153 25.9036H21.9764C21.7953 26.3225 21.6944 26.7839 21.6944 27.2686C21.6944 29.1724 23.2432 30.7212 25.147 30.7212C27.0507 30.7212 28.5996 29.1724 28.5996 27.2686C28.5995 25.365 27.0507 23.8161 25.1469 23.8161ZM17.9393 18.7771H15.6218L15.1041 14.6349H17.9394V18.7771H17.9393ZM25.7445 8.40525H29.3264L28.2909 12.5474H25.2267L25.7445 8.40525ZM24.9658 14.635H27.7689L26.7334 18.7772H24.4481L24.9658 14.635ZM20.0268 8.40525H23.6408L23.123 12.5474H20.0268V8.40525H20.0268ZM20.0268 14.6349H22.8621L22.3443 18.7771H20.0268V14.6349H20.0268ZM17.9393 8.40525V12.5474H14.8431L14.3254 8.40525H17.9393ZM8.58675 8.40525H12.2216L12.7394 12.5474H9.62231L8.58675 8.40525ZM10.1442 14.6349H13.0004L13.5181 18.7771H11.1798L10.1442 14.6349ZM11.1447 28.6338C10.392 28.6338 9.77962 28.0214 9.77962 27.2687C9.77962 26.516 10.392 25.9036 11.1447 25.9036C11.8974 25.9036 12.5098 26.516 12.5098 27.2687C12.5098 28.0214 11.8974 28.6338 11.1447 28.6338ZM25.1469 28.6338C24.3943 28.6338 23.7819 28.0214 23.7819 27.2687C23.7819 26.516 24.3943 25.9036 25.1469 25.9036C25.8996 25.9036 26.512 26.516 26.512 27.2687C26.512 28.0214 25.8996 28.6338 25.1469 28.6338Z" fill="#1DB53E"/>
</svg>
