<svg width="40" height="40" viewBox="0 0 40 40" fill="none" xmlns="http://www.w3.org/2000/svg">
<g clip-path="url(#clip0_58_1726)" filter="url(#filter0_d_58_1726)">
<path d="M36 21.3335V28.0001C36 29.061 35.5786 30.0784 34.8284 30.8286C34.0783 31.5787 33.0609 32.0001 32 32.0001H25.3333C23.4628 31.9982 21.6257 31.5044 20.0062 30.5683C18.3867 29.6322 17.0419 28.2867 16.1067 26.6668C17.1118 26.6596 18.1136 26.5488 19.096 26.3361C19.8442 27.2717 20.7933 28.0268 21.8731 28.5457C22.9528 29.0645 24.1354 29.3338 25.3333 29.3335H32C32.3536 29.3335 32.6928 29.193 32.9428 28.9429C33.1929 28.6929 33.3333 28.3538 33.3333 28.0001V21.3335C33.333 20.1351 33.063 18.9522 32.5432 17.8724C32.0234 16.7927 31.2672 15.8438 30.3307 15.0961C30.5451 14.1139 30.6577 13.1121 30.6667 12.1068C32.2866 13.0421 33.6321 14.3869 34.5682 16.0063C35.5043 17.6258 35.9981 19.4629 36 21.3335ZM27.9693 12.8681C28.094 11.1503 27.8475 9.42578 27.2465 7.81172C26.6454 6.19766 25.704 4.73189 24.4861 3.51402C23.2682 2.29614 21.8025 1.3547 20.1884 0.75367C18.5743 0.152635 16.8498 -0.0939077 15.132 0.0307932C12.0879 0.378436 9.2759 1.82703 7.22557 4.10378C5.17524 6.38054 4.02804 9.32836 4 12.3921V19.1121C4 22.4881 6.00933 24.0001 8 24.0001H15.6C18.6651 23.9737 21.6147 22.8273 23.8931 20.7769C26.1714 18.7264 27.6212 15.9135 27.9693 12.8681ZM22.6 5.40146C23.5466 6.35013 24.2783 7.49106 24.7458 8.74704C25.2132 10.003 25.4054 11.3448 25.3093 12.6815C25.0248 15.0597 23.8807 17.2519 22.0924 18.8454C20.3042 20.4389 17.9952 21.3238 15.6 21.3335H8C6.76267 21.3335 6.66667 19.6335 6.66667 19.1121V12.3921C6.67778 9.99796 7.56353 7.6904 9.15722 5.9037C10.7509 4.117 12.9427 2.97435 15.32 2.69079C15.5413 2.67479 15.7627 2.66679 15.984 2.66679C17.2124 2.66565 18.4289 2.90658 19.5641 3.3758C20.6993 3.84503 21.7309 4.53336 22.6 5.40146Z" fill="white"/>
</g>
<defs>
<filter id="filter0_d_58_1726" x="0" y="0" width="40" height="40" filterUnits="userSpaceOnUse" color-interpolation-filters="sRGB">
<feFlood flood-opacity="0" result="BackgroundImageFix"/>
<feColorMatrix in="SourceAlpha" type="matrix" values="0 0 0 0 0 0 0 0 0 0 0 0 0 0 0 0 0 0 127 0" result="hardAlpha"/>
<feOffset dy="4"/>
<feGaussianBlur stdDeviation="2"/>
<feComposite in2="hardAlpha" operator="out"/>
<feColorMatrix type="matrix" values="0 0 0 0 0 0 0 0 0 0 0 0 0 0 0 0 0 0 0.25 0"/>
<feBlend mode="normal" in2="BackgroundImageFix" result="effect1_dropShadow_58_1726"/>
<feBlend mode="normal" in="SourceGraphic" in2="effect1_dropShadow_58_1726" result="shape"/>
</filter>
<clipPath id="clip0_58_1726">
<rect width="32" height="32" fill="white" transform="translate(4)"/>
</clipPath>
</defs>
</svg>
