<svg width="24" height="24" viewBox="0 0 24 24" fill="none" xmlns="http://www.w3.org/2000/svg">
<g clip-path="url(#clip0_37_403)">
<path d="M0.999992 4.75026H3.73599C3.95063 5.53999 4.41917 6.23715 5.06932 6.73419C5.71947 7.23123 6.51511 7.50052 7.33349 7.50052C8.15187 7.50052 8.94751 7.23123 9.59767 6.73419C10.2478 6.23715 10.7164 5.53999 10.931 4.75026H23C23.2652 4.75026 23.5196 4.6449 23.7071 4.45737C23.8946 4.26983 24 4.01548 24 3.75026C24 3.48504 23.8946 3.23069 23.7071 3.04315C23.5196 2.85562 23.2652 2.75026 23 2.75026H10.931C10.7164 1.96053 10.2478 1.26336 9.59767 0.766328C8.94751 0.269291 8.15187 0 7.33349 0C6.51511 0 5.71947 0.269291 5.06932 0.766328C4.41917 1.26336 3.95063 1.96053 3.73599 2.75026H0.999992C0.734776 2.75026 0.480422 2.85562 0.292886 3.04315C0.105349 3.23069 -7.62939e-06 3.48504 -7.62939e-06 3.75026C-7.62939e-06 4.01548 0.105349 4.26983 0.292886 4.45737C0.480422 4.6449 0.734776 4.75026 0.999992 4.75026ZM7.33299 2.00026C7.67911 2.00026 8.01745 2.10289 8.30524 2.29519C8.59303 2.48748 8.81733 2.76079 8.94978 3.08056C9.08223 3.40033 9.11689 3.7522 9.04937 4.09167C8.98184 4.43113 8.81517 4.74295 8.57043 4.9877C8.32569 5.23244 8.01387 5.39911 7.6744 5.46663C7.33493 5.53416 6.98307 5.4995 6.6633 5.36705C6.34353 5.23459 6.07021 5.01029 5.87792 4.72251C5.68563 4.43472 5.58299 4.09638 5.58299 3.75026C5.58352 3.28629 5.76807 2.84148 6.09614 2.51341C6.42421 2.18533 6.86903 2.00079 7.33299 2.00026Z" fill="#00DE78"/>
<path d="M23 10.999H20.264C20.0497 10.2091 19.5814 9.5117 18.9313 9.01446C18.2812 8.51722 17.4855 8.2478 16.667 8.2478C15.8485 8.2478 15.0528 8.51722 14.4027 9.01446C13.7526 9.5117 13.2843 10.2091 13.07 10.999H0.999992C0.734776 10.999 0.480422 11.1044 0.292886 11.2919C0.105349 11.4795 -7.62939e-06 11.7338 -7.62939e-06 11.999C-7.62939e-06 12.2642 0.105349 12.5186 0.292886 12.7061C0.480422 12.8937 0.734776 12.999 0.999992 12.999H13.07C13.2843 13.7889 13.7526 14.4864 14.4027 14.9836C15.0528 15.4808 15.8485 15.7503 16.667 15.7503C17.4855 15.7503 18.2812 15.4808 18.9313 14.9836C19.5814 14.4864 20.0497 13.7889 20.264 12.999H23C23.2652 12.999 23.5196 12.8937 23.7071 12.7061C23.8946 12.5186 24 12.2642 24 11.999C24 11.7338 23.8946 11.4795 23.7071 11.2919C23.5196 11.1044 23.2652 10.999 23 10.999ZM16.667 13.749C16.3209 13.749 15.9825 13.6464 15.6947 13.4541C15.407 13.2618 15.1827 12.9885 15.0502 12.6687C14.9178 12.349 14.8831 11.9971 14.9506 11.6576C15.0181 11.3182 15.1848 11.0063 15.4296 10.7616C15.6743 10.5169 15.9861 10.3502 16.3256 10.2827C16.6651 10.2151 17.0169 10.2498 17.3367 10.3822C17.6565 10.5147 17.9298 10.739 18.1221 11.0268C18.3144 11.3146 18.417 11.6529 18.417 11.999C18.4165 12.463 18.2319 12.9078 17.9038 13.2359C17.5758 13.564 17.131 13.7485 16.667 13.749Z" fill="#00DE78"/>
<path d="M23 19.2502H10.931C10.7164 18.4605 10.2478 17.7634 9.59767 17.2663C8.94751 16.7693 8.15187 16.5 7.33349 16.5C6.51511 16.5 5.71947 16.7693 5.06932 17.2663C4.41917 17.7634 3.95063 18.4605 3.73599 19.2502H0.999992C0.734776 19.2502 0.480422 19.3556 0.292886 19.5431C0.105349 19.7307 -7.62939e-06 19.985 -7.62939e-06 20.2502C-7.62939e-06 20.5155 0.105349 20.7698 0.292886 20.9573C0.480422 21.1449 0.734776 21.2502 0.999992 21.2502H3.73599C3.95063 22.04 4.41917 22.7371 5.06932 23.2342C5.71947 23.7312 6.51511 24.0005 7.33349 24.0005C8.15187 24.0005 8.94751 23.7312 9.59767 23.2342C10.2478 22.7371 10.7164 22.04 10.931 21.2502H23C23.2652 21.2502 23.5196 21.1449 23.7071 20.9573C23.8946 20.7698 24 20.5155 24 20.2502C24 19.985 23.8946 19.7307 23.7071 19.5431C23.5196 19.3556 23.2652 19.2502 23 19.2502ZM7.33299 22.0002C6.98688 22.0002 6.64853 21.8976 6.36074 21.7053C6.07296 21.513 5.84866 21.2397 5.7162 20.9199C5.58375 20.6002 5.54909 20.2483 5.61662 19.9088C5.68414 19.5694 5.85081 19.2576 6.09556 19.0128C6.3403 18.7681 6.65212 18.6014 6.99158 18.5339C7.33105 18.4664 7.68292 18.501 8.00269 18.6335C8.32246 18.7659 8.59577 18.9902 8.78806 19.278C8.98036 19.5658 9.08299 19.9041 9.08299 20.2502C9.0822 20.7141 8.89757 21.1588 8.56955 21.4868C8.24154 21.8148 7.79688 21.9994 7.33299 22.0002Z" fill="#00DE78"/>
</g>
<defs>
<clipPath id="clip0_37_403">
<rect width="24" height="24" fill="white"/>
</clipPath>
</defs>
</svg>
