<svg width="32" height="32" viewBox="0 0 32 32" fill="none" xmlns="http://www.w3.org/2000/svg">
<g clip-path="url(#clip0_44_657)">
<path d="M16 19.9893C13.7909 19.9893 12 21.7801 12 23.9893V31.9893H20V23.9893C20 21.7801 18.2091 19.9893 16 19.9893Z" fill="#A8A8A8"/>
<path d="M22.6667 23.9898V31.9898H28C30.2091 31.9898 32 30.199 32 27.9898V15.8285C32.0003 15.1358 31.7311 14.4702 31.2493 13.9725L19.9187 1.72315C17.9194 -0.439972 14.5452 -0.572784 12.3821 1.42647C12.2793 1.52147 12.1803 1.6204 12.0854 1.72315L0.774688 13.9685C0.278313 14.4683 -0.000187405 15.1442 9.46143e-08 15.8485V27.9898C9.46143e-08 30.199 1.79087 31.9898 4 31.9898H9.33331V23.9898C9.35825 20.3541 12.2937 17.3851 15.8379 17.2996C19.5006 17.2112 22.6388 20.2308 22.6667 23.9898Z" fill="#A8A8A8"/>
<path d="M16 19.9893C13.7909 19.9893 12 21.7801 12 23.9893V31.9893H20V23.9893C20 21.7801 18.2091 19.9893 16 19.9893Z" fill="#A8A8A8"/>
</g>
<defs>
<clipPath id="clip0_44_657">
<rect width="32" height="32" fill="white"/>
</clipPath>
</defs>
</svg>
