<svg width="25" height="25" viewBox="0 0 25 25" fill="none" xmlns="http://www.w3.org/2000/svg">
<g clip-path="url(#clip0_42_465)">
<path d="M18.2252 2.20026C17.0599 2.21767 15.92 2.53019 14.9206 3.10626C13.9213 3.68233 13.0978 4.50155 12.5335 5.48118C11.9691 4.50155 11.1457 3.68233 10.1463 3.10626C9.14696 2.53019 8.00708 2.21767 6.84178 2.20026C4.98416 2.2778 3.23398 3.05852 1.97361 4.37186C0.713239 5.68521 0.0451275 7.42441 0.115239 9.20951C0.115239 13.7302 5.06804 18.6675 9.22194 22.0151C10.1494 22.7638 11.322 23.1743 12.5335 23.1743C13.7449 23.1743 14.9175 22.7638 15.845 22.0151C19.9989 18.6675 24.9517 13.7302 24.9517 9.20951C25.0218 7.42441 24.3537 5.68521 23.0933 4.37186C21.833 3.05852 20.0828 2.2778 18.2252 2.20026ZM14.5152 20.4939C13.9605 20.9427 13.2586 21.1888 12.5335 21.1888C11.8083 21.1888 11.1064 20.9427 10.5517 20.4939C5.23465 16.2078 2.18494 12.0957 2.18494 9.20951C2.1142 7.95153 2.56408 6.71772 3.43646 5.77716C4.30884 4.8366 5.53293 4.2656 6.84178 4.1887C8.15063 4.2656 9.37473 4.8366 10.2471 5.77716C11.1195 6.71772 11.5694 7.95153 11.4986 9.20951C11.4986 9.47319 11.6076 9.72607 11.8017 9.91252C11.9958 10.099 12.259 10.2037 12.5335 10.2037C12.8079 10.2037 13.0711 10.099 13.2652 9.91252C13.4593 9.72607 13.5683 9.47319 13.5683 9.20951C13.4976 7.95153 13.9475 6.71772 14.8198 5.77716C15.6922 4.8366 16.9163 4.2656 18.2252 4.1887C19.534 4.2656 20.7581 4.8366 21.6305 5.77716C22.5029 6.71772 22.9527 7.95153 22.882 9.20951C22.882 12.0957 19.8323 16.2078 14.5152 20.4899V20.4939Z" fill="#374957"/>
</g>
<defs>
<clipPath id="clip0_42_465">
<rect width="24.8365" height="23.8613" fill="white" transform="translate(0.115234 0.2948)"/>
</clipPath>
</defs>
</svg>
