<svg width="42" height="44" viewBox="0 0 42 44" fill="none" xmlns="http://www.w3.org/2000/svg">
<g clip-path="url(#clip0_26_577)">
<path d="M15.8295 23.0593C15.8295 19.7398 13.1999 17.0637 10.004 17.1924C7.16207 17.3069 4.82262 19.6845 4.63346 22.6573C4.55553 23.882 4.83681 25.0324 5.37724 26.0055C5.7262 26.6338 5.64408 27.4177 5.19431 27.9712C4.3242 29.0421 3.81462 30.4444 3.86261 31.9722C3.95851 35.0268 6.32683 37.5232 9.24197 37.6411C12.4383 37.7703 15.0684 35.094 15.0684 31.7742C15.0684 30.692 14.7885 29.6787 14.3008 28.8084C13.9529 28.1874 14.0525 27.4074 14.4976 26.8587C15.3282 25.8347 15.8295 24.5083 15.8295 23.0593Z" fill="#CDE9FA"/>
<path d="M15.8295 23.0593C15.8295 19.7398 13.1999 17.0637 10.004 17.1924C9.57124 17.2098 9.15034 17.2804 8.74675 17.3969C10.8947 19.6936 10.2827 24.0571 9.59159 26.0285C9.44623 26.4433 9.46198 26.8986 9.63359 27.3023C10.4983 29.3357 10.8518 34.6673 7.31432 37.1923C7.91273 37.4554 8.56218 37.6136 9.24197 37.6411C12.4383 37.7704 15.0684 35.0941 15.0684 31.7743C15.0684 30.6995 14.7923 29.6926 14.3108 28.8264C13.9615 28.1981 14.0481 27.4129 14.4975 26.8588C15.3282 25.8347 15.8295 24.5083 15.8295 23.0593Z" fill="#A2DDFD"/>
<path d="M4.90891 14.0489C7.62003 14.0489 9.81783 11.7464 9.81783 8.90622C9.81783 6.066 7.62003 3.76355 4.90891 3.76355C2.1978 3.76355 0 6.066 0 8.90622C0 11.7464 2.1978 14.0489 4.90891 14.0489Z" fill="#CDE9FA"/>
<path d="M8.69564 12.1788C3.57845 13.386 0.848695 7.82367 2.65601 4.33752C1.07871 5.19295 0 6.91711 0 8.90622C0 11.7465 2.19778 14.0489 4.90891 14.0489C6.43322 14.0488 7.79527 13.3209 8.69564 12.1788Z" fill="#A2DDFD"/>
<path d="M40.6643 25.9427C42.4359 24.0867 42.4359 21.0776 40.6643 19.2216C38.8927 17.3656 36.0203 17.3656 34.2487 19.2216C32.477 21.0776 32.477 24.0867 34.2487 25.9427C36.0203 27.7987 38.8927 27.7987 40.6643 25.9427Z" fill="#CDE9FA"/>
<path d="M40.9628 25.6052C36.233 26.7209 33.71 21.5798 35.3805 18.3576C33.9226 19.1483 32.9255 20.7418 32.9255 22.5803C32.9255 25.2055 34.957 27.3336 37.4628 27.3336C38.8717 27.3335 40.1306 26.6607 40.9628 25.6052Z" fill="#A2DDFD"/>
<path d="M23.2683 0.898994H18.7317C17.7162 0.898994 16.856 1.68309 16.7156 2.73668L15.3955 12.6418H26.6046L25.2846 2.73668C25.144 1.68309 24.2839 0.898994 23.2683 0.898994Z" fill="#F6EE86"/>
<path d="M25.8546 12.1873H16.1454C13.7395 12.1873 11.7892 14.2306 11.7892 16.7509V40.7624C11.7892 42.054 12.7887 43.101 14.0215 43.101H27.9786C29.2114 43.101 30.2109 42.054 30.2109 40.7624V16.7509C30.2108 14.2305 28.2605 12.1873 25.8546 12.1873Z" fill="#EDA1AB"/>
<path d="M15.1988 12.2965C13.2483 12.7495 11.7892 14.5711 11.7892 16.7509V40.7624C11.7892 42.0539 12.7887 43.101 14.0215 43.101H22.3977C16.4975 37.1944 14.4027 28.2999 15.1988 12.2965Z" fill="#E1796E"/>
<path d="M25.4279 33.8143H16.5721C15.6097 33.8143 14.8295 32.997 14.8295 31.9888V22.972C14.8295 21.9637 15.6097 21.1464 16.5721 21.1464H25.428C26.3904 21.1464 27.1706 21.9637 27.1706 22.972V31.9888C27.1705 32.997 26.3903 33.8143 25.4279 33.8143Z" fill="#FBF1CF"/>
<path d="M14.8295 22.972V31.9888C14.8295 32.997 15.6096 33.8143 16.572 33.8143H16.9234C15.8921 30.5405 15.301 26.6603 15.1079 21.9843C14.9325 22.2692 14.8295 22.6078 14.8295 22.972Z" fill="#F7DFB7"/>
<path d="M23.3257 23.5875C24.6125 22.2394 24.6125 20.0537 23.3257 18.7056C22.0388 17.3575 19.9525 17.3575 18.6657 18.7056C17.3789 20.0537 17.3789 22.2394 18.6657 23.5875C19.9525 24.9356 22.0388 24.9356 23.3257 23.5875Z" fill="#E1796E"/>
<path d="M11.7892 38.2367V40.7624C11.7892 42.054 12.7887 43.101 14.0215 43.101H27.9786C29.2114 43.101 30.2109 42.054 30.2109 40.7624V38.2367H11.7892Z" fill="#F6EE86"/>
<path d="M18.7747 38.2367H11.7892V40.7624C11.7892 42.054 12.7887 43.101 14.0215 43.101H22.3977C20.9719 41.6737 19.769 40.0711 18.7747 38.2367Z" fill="#F1D88C"/>
<path d="M23.2604 28.4319H18.7397C18.3999 28.4319 18.1245 28.1433 18.1245 27.7874C18.1245 27.4313 18.3999 27.1428 18.7397 27.1428H23.2604C23.6002 27.1428 23.8756 27.4313 23.8756 27.7874C23.8756 28.1433 23.6001 28.4319 23.2604 28.4319Z" fill="#4E5660"/>
<path d="M22.3725 31.1775H19.6275C19.2876 31.1775 19.0122 30.889 19.0122 30.533C19.0122 30.177 19.2876 29.8885 19.6275 29.8885H22.3725C22.7123 29.8885 22.9877 30.177 22.9877 30.533C22.9877 30.889 22.7123 31.1775 22.3725 31.1775Z" fill="#4E5660"/>
<path d="M29.4007 39.8927C31.6645 39.8927 33.4996 37.9702 33.4996 35.5987C33.4996 33.2271 31.6645 31.3046 29.4007 31.3046C27.137 31.3046 25.3019 33.2271 25.3019 35.5987C25.3019 37.9702 27.137 39.8927 29.4007 39.8927Z" fill="#CDE9FA"/>
<path d="M32.5626 38.3313C28.2899 39.3393 26.0105 34.6948 27.5197 31.784C26.2027 32.4982 25.302 33.9378 25.302 35.5988C25.302 37.9703 27.1371 39.8928 29.4008 39.8928C30.6736 39.8927 31.8108 39.2849 32.5626 38.3313Z" fill="#A2DDFD"/>
<path d="M18.7317 0.898994C17.7162 0.898994 16.856 1.68309 16.7156 2.73668L16.314 5.74999H25.686L25.2844 2.73668C25.144 1.68309 24.2838 0.898994 23.2683 0.898994H18.7317Z" fill="#F1D88C"/>
</g>
<defs>
<clipPath id="clip0_26_577">
<rect width="42" height="44" fill="white"/>
</clipPath>
</defs>
</svg>
