<svg width="47" height="46" viewBox="0 0 47 46" fill="none" xmlns="http://www.w3.org/2000/svg">
<g clip-path="url(#clip0_26_612)">
<path d="M12.3498 36.149L20.3619 39.5866C21.3542 40.0115 22.2564 40.6147 23.0229 41.365L26.5558 44.8227C27.2605 45.5125 28.403 45.5131 29.1084 44.8227L31.0343 42.9377C31.7391 42.248 31.7391 41.1291 31.0343 40.4394L20.3734 30.0051L12.3498 36.149Z" fill="#B3DAFE"/>
<path d="M24.931 34.4655L26.3449 33.0817C27.2566 32.1895 27.2566 30.743 26.3449 29.8507L22.8643 26.4441L19.7998 29.4434L24.931 34.4655Z" fill="#F28CC4"/>
<path d="M26.3449 29.8507L24.3706 27.9184C25.2822 28.8106 25.2822 30.2572 24.3706 31.1494L22.9567 32.5332L24.931 34.4655L26.3449 33.0817C27.2566 32.1895 27.2566 30.743 26.3449 29.8507Z" fill="#ED74B7"/>
<path d="M19.9938 33.903L29.8361 19.6207L22.7025 12.6388L8.10955 22.2717C3.64638 25.2179 3.03639 31.4169 6.84309 35.1426C10.6498 38.8683 16.9836 38.2713 19.9938 33.903Z" fill="#B3DAFE"/>
<path d="M27.8618 17.6884L18.0195 31.9708C15.2759 35.9522 9.77158 36.8 5.93595 34.0982C6.20417 34.463 6.506 34.8127 6.84309 35.1426C10.6498 38.8683 16.9835 38.2713 19.9938 33.9031L29.8361 19.6207L27.8618 17.6884Z" fill="#A4C7FF"/>
<path d="M36.633 16.9386L29.836 19.6207L22.7024 12.6388L25.4427 5.98643C25.787 5.15071 26.8914 4.93035 27.5424 5.56754L37.061 14.8836C37.7121 15.5208 37.4869 16.6017 36.633 16.9386Z" fill="#F28CC4"/>
<path d="M37.061 14.8836L35.0867 12.9513C35.7377 13.5885 35.5126 14.6694 34.6587 15.0063L27.8617 17.6883L22.7023 12.6387L29.8359 19.6206L36.6329 16.9385C37.4869 16.6017 37.7121 15.5208 37.061 14.8836Z" fill="#ED74B7"/>
<path d="M13.1745 34.9127C16.49 34.9127 19.1778 32.2822 19.1778 29.0372C19.1778 25.7922 16.49 23.1617 13.1745 23.1617C9.85902 23.1617 7.17127 25.7922 7.17127 29.0372C7.17127 32.2822 9.85902 34.9127 13.1745 34.9127Z" fill="#91B6FF"/>
<path d="M17.4194 24.8826C17.0794 24.5498 16.7081 24.2669 16.3157 24.0306C17.7387 26.2947 17.4495 29.2978 15.4452 31.2596C13.4408 33.2214 10.3723 33.5044 8.05913 32.1116C8.30054 32.4956 8.58961 32.8592 8.92964 33.1919C11.274 35.4864 15.0751 35.4864 17.4195 33.1919C19.7639 30.8974 19.7638 27.1771 17.4194 24.8826Z" fill="#7DA8FF"/>
<path d="M24.7739 43.0786L26.5558 44.8226C27.2605 45.5124 28.403 45.513 29.1084 44.8226L31.0343 42.9376C31.7391 42.2479 31.7391 41.1291 31.0343 40.4393L29.2525 38.6953L24.7739 43.0786Z" fill="#91B6FF"/>
<path d="M28.0295 5.09095C27.1424 4.16339 25.3133 4.44235 24.8041 5.73443L22.1425 12.1954L7.72452 21.7129C5.42604 23.2301 3.95546 25.6493 3.68963 28.3502C3.4238 31.0511 4.39577 33.7006 6.35614 35.6193C8.61385 37.8277 11.8643 38.7438 15.0172 38.03C16.8697 38.9232 21.1504 40.3027 22.5357 41.8417L26.0688 45.2993C26.9467 46.1901 28.6236 46.2763 29.5957 45.2992L31.5213 43.4145C32.4118 42.5634 32.5388 40.9286 31.5213 39.9626L25.9046 34.4656L26.8317 33.5583C27.945 32.5147 28.0374 30.5111 26.8318 29.3743L25.1082 27.6866L30.289 20.1687L36.8904 17.5637C38.1246 17.1164 38.5547 15.3872 37.5479 14.4069L28.0295 5.09095ZM13.6511 36.8871C11.3025 37.1085 8.9986 36.2989 7.33013 34.6659C5.66167 33.0331 4.83451 30.7781 5.06076 28.4794C5.28693 26.1807 6.5386 24.1218 8.49475 22.8305L22.6169 13.5084L28.9477 19.7045L19.4229 33.5261C18.1035 35.4406 15.9997 36.6658 13.6511 36.8871ZM20.638 38.9693L16.9173 37.3732C18.3734 36.6865 19.635 35.6292 20.5648 34.28L21.8546 32.4083L28.2785 38.6954L24.7738 42.1255L23.5098 40.8887C22.6801 40.0758 21.7137 39.4299 20.638 38.9693ZM30.5477 40.9163C30.8862 41.235 31.0383 41.9783 30.5474 42.461L28.6215 44.346C28.2808 44.6918 27.5332 44.8052 27.043 44.3459L25.7478 43.0785L29.2524 39.6486L30.5477 40.9163ZM25.8578 30.3275C26.1687 30.6318 26.34 31.0362 26.34 31.4663C26.34 31.8963 26.1687 32.3007 25.8578 32.6051L24.9307 33.5124L22.6392 31.2697L24.3238 28.8253L25.8578 30.3275ZM36.7365 15.8891C36.6958 16.0843 36.5642 16.239 36.3755 16.3135L30.0009 18.8289L23.5114 12.4774L26.0815 6.23852C26.1992 5.95947 26.6579 5.70801 27.0554 6.04422L36.574 15.3602C36.718 15.5011 36.7772 15.6938 36.7365 15.8891Z" fill="black"/>
<path d="M17.9064 33.6685C20.5156 31.1148 20.5156 26.9596 17.9064 24.4059C15.4402 21.9125 10.9972 21.8413 8.44259 24.4059C5.83338 26.9596 5.83338 31.1148 8.44259 33.6685C10.5202 35.7512 14.1545 36.2369 16.7587 34.5668C17.1658 34.314 17.5517 34.0157 17.9064 33.6685ZM13.1404 30.8842C12.76 30.8842 12.4517 31.1859 12.4517 31.5583V34.1876C11.8183 34.1032 11.198 33.9067 10.6234 33.5993V24.4752C11.198 24.1678 11.8183 23.9713 12.4517 23.8869V28.2196C12.4517 28.592 12.76 28.8937 13.1404 28.8937C13.5207 28.8937 13.8291 28.592 13.8291 28.2196V23.8789C14.4605 23.955 15.0807 24.1404 15.6564 24.4375V33.637C15.0807 33.9341 14.4605 34.1195 13.8291 34.1956V31.5583C13.8291 31.1859 13.5207 30.8842 13.1404 30.8842ZM17.0338 32.6109V25.4636C18.9688 27.4639 18.9688 30.6105 17.0338 32.6109ZM9.24607 25.5348V32.5396C7.40194 30.5604 7.40194 27.514 9.24607 25.5348Z" fill="black"/>
<path d="M22.1048 20.8797C22.281 20.8797 22.4573 20.8139 22.5918 20.6823L24.6348 18.6828C24.9037 18.4194 24.9037 17.9927 24.6348 17.7295C24.3658 17.4663 23.9297 17.4663 23.6609 17.7295L21.6179 19.729C21.3489 19.9924 21.3489 20.4191 21.6179 20.6823C21.7523 20.8138 21.9286 20.8797 22.1048 20.8797Z" fill="black"/>
<path d="M32.5953 4.44712C32.7715 4.44712 32.9478 4.38133 33.0822 4.24976L36.2486 1.15072C36.5176 0.8874 36.5176 0.46069 36.2486 0.197457C35.9797 -0.0656867 35.5436 -0.0656867 35.2747 0.197457L32.1083 3.29649C31.8394 3.55982 31.8394 3.98653 32.1083 4.24976C32.2429 4.38124 32.4191 4.44712 32.5953 4.44712Z" fill="black"/>
<path d="M39.393 2.83374L41.0731 1.18936C41.3421 0.926036 41.3421 0.499326 41.0731 0.236092C40.8042 -0.0270515 40.3681 -0.0270515 40.0992 0.236092L38.4191 1.88047C38.1502 2.14379 38.1502 2.5705 38.4191 2.83374C38.5536 2.96531 38.7299 3.0311 38.9061 3.0311C39.0823 3.0311 39.2586 2.96531 39.393 2.83374Z" fill="black"/>
<path d="M34.5403 5.67664C34.2714 5.93997 34.2714 6.36668 34.5403 6.62991C34.6748 6.76148 34.8511 6.82727 35.0273 6.82727C35.2035 6.82727 35.3798 6.76148 35.5142 6.62991L37.0352 5.14128C37.3042 4.87796 37.3042 4.45125 37.0352 4.18801C36.7663 3.92487 36.3302 3.92487 36.0613 4.18801L34.5403 5.67664Z" fill="black"/>
<path d="M43.1518 6.95363C42.8828 6.69058 42.4468 6.6904 42.1779 6.95363L39.0115 10.0526C38.7425 10.3159 38.7425 10.7426 39.0115 11.0058C39.1459 11.1374 39.3222 11.2032 39.4984 11.2032C39.6746 11.2032 39.8509 11.1374 39.9854 11.0058L43.1518 7.9069C43.4207 7.64357 43.4207 7.21686 43.1518 6.95363Z" fill="black"/>
<path d="M20.1768 22.8319C20.5488 22.8319 20.8506 22.5367 20.8506 22.1725C20.8506 21.8082 20.5489 21.513 20.1768 21.513C19.8046 21.513 19.5029 21.8082 19.5029 22.1725C19.5029 22.5367 19.8047 22.8319 20.1768 22.8319Z" fill="black"/>
</g>
<defs>
<clipPath id="clip0_26_612">
<rect width="47" height="46" fill="white"/>
</clipPath>
</defs>
</svg>
