<svg width="41" height="42" viewBox="0 0 41 42" fill="none" xmlns="http://www.w3.org/2000/svg">
<g clip-path="url(#clip0_26_599)">
<path d="M8.16797 5.53711L6.9668 7.99805V25.2246H9.36914V7.99805L8.16797 5.53711Z" fill="#FA4087"/>
<path d="M5.16504 1.88928L6.9668 7.99805H9.36914L11.1709 1.88928C9.51241 0.190338 6.82353 0.190338 5.16504 1.88928Z" fill="#FA71A3"/>
<path d="M12.3721 23.4609L7.56738 30.1039L11.1709 41.3848H13.5732L14.7744 23.4609H12.3721Z" fill="#474867"/>
<path d="M1.56152 23.4609L2.7627 41.3848H11.1709L12.3721 23.4609H1.56152Z" fill="#616281"/>
<path d="M28.5879 9.22852L26.5859 17.8418H30.9902V9.22852H28.5879Z" fill="#F9D4DB"/>
<path d="M24.9844 9.22852H28.5879V17.8418H24.9844V9.22852Z" fill="white"/>
<path d="M36.9961 14.1504L32.1914 41.3848H34.5938C36.5757 41.3848 38.2705 39.7252 38.3599 37.6972L39.3984 14.1504H36.9961Z" fill="#F9D4DB"/>
<path d="M16.5762 14.1504L17.6147 37.6972C17.7041 39.7252 19.3989 41.3848 21.3809 41.3848H32.1914C34.1733 41.3848 35.8681 39.7252 35.9576 37.6972L36.3348 29.0878L18.981 14.1504H16.5762Z" fill="white"/>
<path d="M34.5912 14.1504L28.8025 36.4629C32.7663 36.4629 36.1559 33.1438 36.3348 29.0878L36.9936 14.1504H34.5912Z" fill="#FA4087"/>
<path d="M33.9325 29.0878L34.5912 14.1504H18.981L19.6398 29.0878C19.8187 33.1438 23.2083 36.4629 27.1721 36.4629H28.8025C31.5023 36.4629 33.8108 33.1438 33.9325 29.0878Z" fill="#FA71A3"/>
<path d="M14.7744 22.8457H9.96972V8.08905L11.7458 2.06744C11.81 1.85019 11.7521 1.61467 11.5957 1.45445C10.6801 0.516541 9.46267 0 8.16797 0C6.87327 0 5.65583 0.516541 4.74025 1.45445C4.58385 1.61467 4.52598 1.85019 4.5901 2.06744L6.36621 8.08905V22.8457H1.56152C1.39511 22.8457 1.23621 22.9165 1.12266 23.0412C1.00911 23.1658 0.950927 23.3331 0.9625 23.5032L2.16367 41.4271C2.18526 41.7497 2.44707 42 2.76269 42H13.5732C13.8889 42 14.1507 41.7494 14.1723 41.4271L15.3734 23.5032C15.385 23.3331 15.3268 23.1658 15.2133 23.0412C15.0997 22.9165 14.9408 22.8457 14.7744 22.8457ZM5.84946 2.0825C6.50072 1.53072 7.31182 1.23047 8.16797 1.23047C9.02411 1.23047 9.83522 1.53072 10.4865 2.0825L8.92339 7.38281H7.41286L5.84946 2.0825ZM7.56738 8.61328H8.76855V22.8457H7.56738V8.61328ZM13.0124 40.7695H3.32355L2.20465 24.0762H14.1313L13.0124 40.7695Z" fill="black"/>
<path d="M39.8326 13.7252C39.7194 13.604 39.5623 13.5352 39.3984 13.5352H31.5908V12.3047H32.1914C32.523 12.3047 32.792 12.0294 32.792 11.6895C32.792 11.3495 32.523 11.0742 32.1914 11.0742H31.5908V9.22852C31.5908 8.88853 31.3218 8.61328 30.9902 8.61328H24.9844C24.6528 8.61328 24.3838 8.88853 24.3838 9.22852V11.0742H23.7832C23.4516 11.0742 23.1826 11.3495 23.1826 11.6895C23.1826 12.0294 23.4516 12.3047 23.7832 12.3047H24.3838V13.5352H16.5762C16.4123 13.5352 16.2552 13.604 16.142 13.7252C16.0288 13.8466 15.9687 14.0104 15.9762 14.1783L17.0147 37.7248C17.1186 40.0822 19.0774 42 21.3809 42H34.5938C36.8972 42 38.856 40.0822 38.9599 37.7251L39.9984 14.1783C40.0059 14.0104 39.9458 13.8466 39.8326 13.7252ZM25.585 9.84375H30.3897V11.0742H25.585V9.84375ZM25.585 12.3047H30.3897V13.5352H25.585V12.3047ZM37.76 37.6693C37.6846 39.3788 36.2641 40.7695 34.5938 40.7695H21.3809C19.7105 40.7695 18.29 39.3788 18.2146 37.6693L17.2046 14.7656H18.407L18.9313 26.6544C18.946 26.9844 19.2116 27.2421 19.5309 27.2421C19.54 27.2421 19.5491 27.2417 19.5585 27.2414C19.8897 27.226 20.1462 26.9383 20.1312 26.599L19.6091 14.7656H36.3655L35.7349 29.0599C35.5697 32.8026 32.4601 35.8477 28.8025 35.8477H27.1721C23.5148 35.8477 20.4049 32.8026 20.2397 29.0599C20.2247 28.7202 19.9438 28.4562 19.6126 28.4732C19.2813 28.4882 19.0248 28.776 19.0398 29.1153C19.2335 33.5059 22.8817 37.0781 27.1721 37.0781H28.8025C33.0929 37.0781 36.7412 33.5059 36.9348 29.1153L37.5676 14.7656H38.77L37.76 37.6693Z" fill="black"/>
</g>
<defs>
<clipPath id="clip0_26_599">
<rect width="41" height="42" fill="white"/>
</clipPath>
</defs>
</svg>
