<svg width="32" height="28" viewBox="0 0 32 28" fill="none" xmlns="http://www.w3.org/2000/svg">
<path d="M23.6125 8.83721V5.85246C23.6125 5.62597 23.3875 5.44278 23.1093 5.44278H22.0919V3.84331L23.7182 4.63632C24.325 4.96464 24.9606 5.12851 25.5523 5.12851C26.1627 5.13553 26.7501 4.9424 27.1844 4.59359C28.1708 3.79883 28.1794 2.5031 27.2031 1.70014C26.7587 1.33377 26.1879 1.15001 25.5631 1.15001C24.9829 1.15001 24.3567 1.30861 23.7412 1.62581L22.0919 2.4077V0.409672C22.0919 0.183182 21.8669 0 21.5886 0H17.1627C16.8852 0 16.6594 0.183182 16.6594 0.409672V2.73017H15.6428C15.3645 2.73017 15.1395 2.91335 15.1395 3.13984C15.1395 3.36575 15.3645 3.54951 15.6428 3.54951H16.6594V5.4422H15.6428C15.3645 5.4422 15.1395 5.62597 15.1395 5.85187V8.84248C14.0481 9.15558 13.0135 9.58574 12.063 10.1218C11.5928 9.97083 11.0924 9.89358 10.587 9.89416H10.5525C9.44817 9.89767 8.3956 10.2752 7.64643 10.9359C7.05832 11.4527 6.68949 12.1093 6.59387 12.8093C6.41125 12.7338 6.21713 12.6776 6.01582 12.6425C5.30548 12.5178 4.56494 12.6893 4.04082 13.1001C4.01493 13.12 3.98905 13.1405 3.96389 13.161C3.93872 13.1821 3.91356 13.2031 3.89055 13.2248C3.38224 13.6713 3.17877 14.2935 3.34701 14.8863C3.39231 15.0484 3.46277 15.2059 3.55695 15.3533C2.68341 15.4364 1.86666 15.7495 1.23181 16.2452C-0.366451 17.4965 -0.416059 19.5659 1.12181 20.8669C1.17286 20.9102 1.22534 20.9524 1.27926 20.9933C1.92346 21.4797 2.74452 21.7817 3.61806 21.8537C3.52819 22.0023 3.46133 22.1597 3.41963 22.3219C3.26361 22.917 3.4793 23.5362 3.99624 23.9758C4.02069 23.9968 4.04585 24.0173 4.07101 24.0378C4.09618 24.0583 4.12278 24.0788 4.14938 24.0981C4.55344 24.4036 5.08404 24.5739 5.63548 24.5751C5.803 24.5751 5.9698 24.5598 6.13301 24.5288C6.33432 24.4914 6.52844 24.4322 6.71034 24.3532C6.8189 25.0532 7.2014 25.7063 7.80101 26.2155C8.55521 26.8593 9.60131 27.2215 10.6934 27.2174H10.7279C11.2679 27.2145 11.8013 27.1238 12.2967 26.9494C12.7597 27.2309 13.2486 27.4831 13.7591 27.7049C13.8288 27.733 13.9058 27.7477 13.9834 27.7483H24.7888C24.8664 27.7483 24.9433 27.733 25.0131 27.7049C29.2952 25.9673 32.0014 22.4079 32 18.5137C32 14.1682 28.6417 10.2939 23.6125 8.83721ZM24.256 2.32986C24.2618 2.32694 24.2668 2.32401 24.2725 2.32108C24.5997 2.15195 25.7249 1.64864 26.4877 2.27602C27.0729 2.75768 27.0679 3.53488 26.4762 4.01127C26.0678 4.34018 25.2726 4.49703 24.2668 3.94924C24.2596 3.94573 24.2531 3.94221 24.2459 3.9387L22.5787 3.12521L24.256 2.32986ZM17.666 0.819344H21.0854V5.4422H17.666V0.819344ZM16.1461 6.26154H22.606V8.72309H16.1461V6.26154ZM8.38338 11.4936C8.94489 10.9991 9.7336 10.7164 10.5611 10.7141H10.587C11.4052 10.7112 12.1889 10.9827 12.7533 11.4644C13.3256 11.949 13.629 12.6033 13.5923 13.2745C13.5822 13.4343 13.5369 13.5906 13.4571 13.7363C13.4557 13.7398 13.4535 13.7439 13.4514 13.7474C13.4406 13.7667 13.4298 13.786 13.4176 13.8059L13.2457 14.0822L13.0301 14.4245C13.0229 14.4363 13.0157 14.4485 13.0099 14.4602L11.6475 16.6497C11.462 16.5847 11.2679 16.5379 11.0687 16.511L11.0615 15.2146C11.0601 14.9893 10.8351 14.8067 10.5583 14.8067H10.5561C10.2779 14.8079 10.0535 14.9922 10.055 15.2181L10.0629 16.5349C9.90183 16.5654 9.7451 16.6087 9.59484 16.6637L8.20795 14.5229C8.1986 14.5006 8.1871 14.4784 8.17344 14.4573L7.7701 13.8416C7.74493 13.7937 7.71689 13.7474 7.68814 13.7018C7.62846 13.5783 7.59251 13.4478 7.58173 13.3155C7.5314 12.6442 7.82114 11.9858 8.38338 11.4936ZM14.7441 18.1578H14.7383L13.1458 18.1719C13.1091 18.0109 13.0488 17.8535 12.9661 17.7043L15.6421 16.5554C15.6464 16.5537 15.6514 16.5519 15.6564 16.5502L15.9131 16.439L16.4301 16.2172C16.6306 16.13 16.8514 16.0785 17.0786 16.0662C17.9025 16.0252 18.7113 16.261 19.316 16.7187C20.5325 17.6411 20.6001 19.1908 19.467 20.1804C19.4303 20.2132 19.3915 20.2454 19.3519 20.2758C18.7573 20.7423 17.9528 20.9887 17.1282 20.9588C16.9391 20.9506 16.7522 20.9155 16.5782 20.8546C16.5544 20.8459 16.5307 20.8371 16.507 20.8283C16.4969 20.8242 16.4861 20.8207 16.4761 20.8166L16.1576 20.6855L15.6931 20.4924C15.683 20.4877 15.6723 20.4848 15.6622 20.4807L12.9819 19.3757C13.0473 19.2522 13.0976 19.1235 13.1329 18.9918L14.7491 18.9772C15.0273 18.976 15.2509 18.7917 15.2495 18.5652C15.2481 18.3393 15.0216 18.1567 14.7441 18.1578ZM15.7096 21.4188L16.026 21.5499C16.0382 21.5552 16.0512 21.5599 16.0634 21.5645C16.072 21.5675 16.0806 21.5704 16.0885 21.5733C16.1144 21.5833 16.1396 21.5932 16.1655 21.602C16.5631 21.7588 16.8535 22.0532 16.9549 22.4032C17.0512 22.735 16.9369 23.0844 16.6501 23.3326C16.635 23.3466 16.6184 23.3601 16.6019 23.3741C16.5854 23.3882 16.5695 23.4005 16.5523 23.4133C16.269 23.6398 15.8642 23.7346 15.4767 23.6656C15.0453 23.5848 14.6815 23.3501 14.4867 23.0265C14.4687 22.9937 14.45 22.9615 14.4299 22.9288C14.4241 22.9188 14.4191 22.9089 14.4126 22.8989L14.3889 22.8626L12.6303 20.1494L15.7096 21.4188ZM14.6873 24.2988C14.8706 24.3755 15.0662 24.4317 15.2682 24.4668C15.4199 24.4931 15.5752 24.5066 15.7312 24.5066C16.2949 24.5054 16.8363 24.3275 17.2432 24.0091C17.2691 23.9892 17.295 23.9687 17.3194 23.9483C17.3446 23.9278 17.3697 23.9061 17.3935 23.8845C17.9018 23.4385 18.1045 22.8164 17.937 22.2235C17.8917 22.0614 17.822 21.9052 17.7285 21.7577C18.6006 21.674 19.4152 21.3615 20.0493 20.8663C21.6476 19.6151 21.6965 17.5457 20.1586 16.2447C20.1076 16.2014 20.0551 16.1592 20.0012 16.1182C19.3577 15.6325 18.5373 15.3305 17.6638 15.2585C17.7551 15.1093 17.8227 14.9513 17.8644 14.788C18.0204 14.1934 17.8047 13.5742 17.2878 13.1347C17.2633 13.1136 17.2382 13.0925 17.213 13.072C17.1878 13.0521 17.1612 13.0311 17.1346 13.0118C16.6026 12.6085 15.8585 12.447 15.1503 12.581C14.9483 12.6191 14.7527 12.6788 14.5701 12.7584C14.5593 12.6928 14.5471 12.6278 14.532 12.5635C15.2035 12.2012 15.9311 11.9133 16.6954 11.7073H22.2249C26.7976 12.9503 29.2665 16.975 27.7394 20.6966C27.0183 22.4553 25.4818 23.9143 23.4572 24.7629H15.4666C15.1956 24.6371 14.9324 24.4996 14.6794 24.3503C14.6822 24.3333 14.6851 24.3164 14.6873 24.2988ZM15.3753 13.3799C15.7621 13.3056 16.1683 13.3945 16.4559 13.6175C16.4732 13.6298 16.4897 13.6432 16.507 13.6567C16.5242 13.6708 16.5393 13.683 16.5559 13.6971C16.8478 13.9411 16.9693 14.2888 16.8794 14.6218C16.7838 14.977 16.4955 15.2773 16.095 15.4382C16.0835 15.4423 16.072 15.447 16.0605 15.4517C16.0425 15.4587 16.0238 15.4657 16.0051 15.4727C15.9922 15.4768 15.98 15.4821 15.9678 15.4874L15.4336 15.7185L12.598 16.9358L14.1409 14.4567L14.3271 14.1606C14.3343 14.1489 14.3407 14.1372 14.3465 14.1255C14.3522 14.1138 14.3594 14.1021 14.3652 14.0904C14.3724 14.0769 14.3796 14.064 14.3867 14.0506C14.573 13.7158 14.9368 13.4683 15.3753 13.3799ZM12.1831 18.5546C12.1831 19.2487 11.4922 19.8117 10.6402 19.8117C9.78824 19.8117 9.09731 19.2487 9.09731 18.5546C9.09731 17.8605 9.78824 17.2975 10.6402 17.2975C11.4922 17.2975 12.1831 17.8605 12.1831 18.5546ZM4.63396 13.7767C4.64978 13.7632 4.6656 13.7492 4.68213 13.7357C4.69867 13.7223 4.71449 13.7094 4.73174 13.6965C5.01502 13.47 5.41908 13.3752 5.80732 13.4443C6.22144 13.5215 6.57374 13.741 6.77361 14.0465C6.80524 14.1068 6.83904 14.167 6.87714 14.2256L8.65011 16.9628L6.07909 15.9023C6.06902 15.8976 6.05896 15.8923 6.04889 15.8882L5.25803 15.5593C5.2458 15.5541 5.23286 15.5494 5.21992 15.5453C4.77272 15.4002 4.44056 15.087 4.32912 14.7061C4.23278 14.3742 4.3471 14.0254 4.63396 13.7767ZM1.96444 20.3929C0.748667 19.4711 0.681084 17.9208 1.81346 16.9312C1.85084 16.8984 1.88967 16.8668 1.92849 16.8358C2.5238 16.3699 3.3276 16.1229 4.15226 16.1528C4.38017 16.1621 4.60233 16.2107 4.80436 16.295L8.29854 17.7359C8.22017 17.8851 8.16265 18.0414 8.12886 18.2011L6.53276 18.2128C6.25523 18.214 6.03092 18.3984 6.03164 18.6243C6.03307 18.8508 6.25955 19.0334 6.53779 19.0322H6.5421L8.15546 19.0205C8.19285 19.1533 8.24605 19.2833 8.31436 19.4073L5.65849 20.548C5.64843 20.5515 5.63764 20.555 5.62758 20.5597L5.17966 20.7534L4.85109 20.8944C4.83959 20.8997 4.82809 20.9038 4.81586 20.9085C4.79429 20.9167 4.77344 20.9249 4.75187 20.9337C4.5786 20.9974 4.39239 21.0355 4.20186 21.0454C3.37793 21.0864 2.56909 20.8505 1.96444 20.3929ZM6.95695 22.9492C6.95048 22.9592 6.94544 22.9691 6.93969 22.9797C6.921 23.0119 6.9023 23.0446 6.88577 23.0774C6.69668 23.4034 6.33792 23.6433 5.90869 23.73C5.52189 23.8043 5.11567 23.7147 4.82808 23.4923C4.81083 23.4795 4.79429 23.4666 4.77776 23.4531C4.76122 23.4397 4.74468 23.4262 4.72887 23.4128C4.43697 23.1681 4.31546 22.8211 4.40533 22.4881C4.49952 22.1363 4.78423 21.8379 5.17894 21.6757C5.20339 21.667 5.22711 21.6576 5.25084 21.6476C5.26018 21.6441 5.26953 21.6406 5.2796 21.6371C5.29254 21.6324 5.30476 21.6278 5.31698 21.6225L5.66137 21.4738L8.68318 20.1758L6.97923 22.9147L6.95695 22.9492ZM10.72 26.3981H10.6941C9.87595 26.401 9.09228 26.1295 8.52717 25.6472C7.95487 25.1626 7.65219 24.5083 7.68885 23.8371C7.69748 23.6954 7.73415 23.5556 7.79886 23.4239C7.82042 23.387 7.84127 23.349 7.86069 23.3109C7.86069 23.3109 7.86213 23.308 7.86356 23.3062L7.87507 23.2875L8.25396 22.6859C8.26331 22.6707 8.27122 22.6554 8.27841 22.6396L9.63294 20.4631C9.78824 20.5175 9.94929 20.5591 10.1146 20.5872L10.1226 21.8981C10.124 22.1235 10.349 22.3061 10.6258 22.3061H10.6287C10.9062 22.3049 11.1305 22.1205 11.1291 21.894L11.1219 20.5936C11.316 20.5632 11.5058 20.514 11.6863 20.4479L13.0854 22.6069C13.0926 22.6227 13.1012 22.6379 13.1106 22.6531L13.506 23.2559L13.5139 23.2682L13.5161 23.2711C13.5362 23.3097 13.5578 23.3478 13.5808 23.3847C13.6477 23.5158 13.6879 23.655 13.6994 23.7967C13.7497 24.4674 13.46 25.1258 12.8978 25.6174C12.3363 26.1131 11.5475 26.3957 10.72 26.3981ZM29.2083 23.5503C28.0946 24.9871 26.5265 26.154 24.6687 26.9289H14.1064C13.8051 26.7925 13.5132 26.6439 13.2321 26.483C13.3744 26.3881 13.5089 26.2857 13.6347 26.1757C13.9618 25.8883 14.2235 25.5559 14.4069 25.1931C14.6355 25.3201 14.8728 25.4359 15.1179 25.5395C15.1877 25.5676 15.2653 25.5828 15.343 25.5828H23.578C23.6564 25.5828 23.7333 25.5676 23.8031 25.5395C28.6144 23.586 30.57 18.8274 28.1708 14.9109C27.0046 13.0071 24.9469 11.565 22.4607 10.909C22.4111 10.8955 22.3587 10.8891 22.3062 10.8891H16.6148C16.5623 10.8891 16.5099 10.8955 16.4602 10.909C15.6701 11.1162 14.9145 11.4018 14.2099 11.7593C14.0244 11.4416 13.7778 11.1507 13.4794 10.8973C13.3435 10.782 13.1976 10.6749 13.043 10.5771C13.8835 10.1435 14.7872 9.79643 15.7327 9.54302H23.0395C29.1263 11.187 32.4228 16.5367 30.4025 21.4914C30.1077 22.2142 29.7072 22.9053 29.2083 23.5503Z" fill="#A8A8A8"/>
</svg>
