<svg width="32" height="32" viewBox="0 0 32 32" fill="none" xmlns="http://www.w3.org/2000/svg">
<g clip-path="url(#clip0_44_660)">
<path d="M16 16C17.5823 16 19.129 15.5308 20.4446 14.6518C21.7602 13.7727 22.7855 12.5233 23.391 11.0615C23.9965 9.59966 24.155 7.99113 23.8463 6.43928C23.5376 4.88743 22.7757 3.46197 21.6569 2.34315C20.538 1.22433 19.1126 0.462403 17.5607 0.153721C16.0089 -0.15496 14.4003 0.00346629 12.9385 0.608967C11.4767 1.21447 10.2273 2.23985 9.34824 3.55544C8.46919 4.87104 8 6.41775 8 8C8.00212 10.1211 8.84565 12.1547 10.3455 13.6545C11.8453 15.1544 13.8789 15.9979 16 16ZM16 2.66667C17.0548 2.66667 18.086 2.97947 18.963 3.5655C19.8401 4.15153 20.5237 4.98449 20.9274 5.95903C21.331 6.93357 21.4366 8.00592 21.2309 9.04049C21.0251 10.0751 20.5171 11.0254 19.7712 11.7712C19.0254 12.5171 18.075 13.0251 17.0405 13.2309C16.0059 13.4366 14.9336 13.331 13.959 12.9274C12.9845 12.5237 12.1515 11.8401 11.5655 10.963C10.9795 10.086 10.6667 9.05484 10.6667 8C10.6667 6.58552 11.2286 5.22896 12.2288 4.22877C13.229 3.22857 14.5855 2.66667 16 2.66667Z" fill="#A8A8A8"/>
<path d="M16 18.6675C12.8185 18.671 9.76828 19.9364 7.51861 22.1861C5.26893 24.4358 4.00352 27.486 3.99999 30.6675C3.99999 31.0211 4.14047 31.3602 4.39051 31.6103C4.64056 31.8603 4.9797 32.0008 5.33332 32.0008C5.68694 32.0008 6.02608 31.8603 6.27613 31.6103C6.52618 31.3602 6.66666 31.0211 6.66666 30.6675C6.66666 28.1921 7.64999 25.8182 9.40033 24.0678C11.1507 22.3175 13.5246 21.3341 16 21.3341C18.4753 21.3341 20.8493 22.3175 22.5997 24.0678C24.35 25.8182 25.3333 28.1921 25.3333 30.6675C25.3333 31.0211 25.4738 31.3602 25.7238 31.6103C25.9739 31.8603 26.313 32.0008 26.6667 32.0008C27.0203 32.0008 27.3594 31.8603 27.6095 31.6103C27.8595 31.3602 28 31.0211 28 30.6675C27.9965 27.486 26.731 24.4358 24.4814 22.1861C22.2317 19.9364 19.1815 18.671 16 18.6675Z" fill="#A8A8A8"/>
</g>
<defs>
<clipPath id="clip0_44_660">
<rect width="32" height="32" fill="white"/>
</clipPath>
</defs>
</svg>
