<svg width="40" height="45" viewBox="0 0 40 45" fill="none" xmlns="http://www.w3.org/2000/svg">
<g clip-path="url(#clip0_26_526)">
<path d="M14.8707 33.4591C23.0835 33.4591 29.7414 25.969 29.7414 16.7295C29.7414 7.49006 23.0835 0 14.8707 0C6.65783 0 0 7.49006 0 16.7295C0 25.969 6.65783 33.4591 14.8707 33.4591Z" fill="#9CEB63"/>
<path d="M25.1824 6.96888C23.7775 6.57639 23.6453 6.74834 23.3373 6.42762C21.0756 4.07298 18.0358 2.64985 14.7011 2.69989C7.85996 2.80241 2.39876 9.03306 2.39884 16.7299C2.39884 21.1798 4.24108 25.1462 7.11419 27.7173C7.44212 28.0107 7.31143 28.1838 7.8747 29.6895C8.16884 30.4758 7.37591 31.2066 6.74134 30.7396C2.6991 27.7652 0.0228943 22.6373 0.000480471 16.8039C-0.0345195 7.73252 6.28065 0.32692 14.3392 0.0107565C18.9441 -0.169922 23.1017 2.00647 25.9333 5.55061C26.4388 6.18322 25.9163 7.1739 25.1824 6.96888Z" fill="#BEFA91"/>
<path d="M14.8707 30.7607C21.7589 30.7607 27.3428 24.4787 27.3428 16.7295C27.3428 8.98032 21.7589 2.69835 14.8707 2.69835C7.9825 2.69835 2.39853 8.98032 2.39853 16.7295C2.39853 24.4787 7.9825 30.7607 14.8707 30.7607Z" fill="#BEFA91"/>
<path d="M22.3497 6.49755C20.9917 6.41977 19.6061 6.54983 18.2528 6.89838C18.1812 6.91681 18.1066 6.91128 18.0375 6.88306C12.0383 4.42872 5.56448 9.42149 5.56448 16.7295C5.56448 19.4676 6.47759 21.2693 6.70966 21.7478C6.74492 21.8204 6.76043 21.9025 6.755 21.985C6.65509 23.5065 6.74224 25.0715 7.02405 26.6072C7.09992 27.0206 6.66233 27.3014 6.38733 27.0143C3.98707 24.5071 2.46552 20.9501 2.40069 16.9931C2.27224 9.15207 7.96397 2.65898 14.9349 2.69854C17.8342 2.71503 20.5001 3.84469 22.6109 5.72732C22.9052 5.98985 22.7248 6.51908 22.3497 6.49755Z" fill="#DAFFBF"/>
<path d="M14.8707 27.199C20.0104 27.199 24.1769 22.5117 24.1769 16.7295C24.1769 10.9474 20.0104 6.26004 14.8707 6.26004C9.73102 6.26004 5.56448 10.9474 5.56448 16.7295C5.56448 22.5117 9.73102 27.199 14.8707 27.199Z" fill="#DAFFBF"/>
<path d="M16.8935 7.32647C11.7405 9.25264 7.83966 14.2645 6.92207 20.4145C6.85785 20.8451 6.3269 20.9075 6.18698 20.5002C5.785 19.3303 5.56448 18.0589 5.56448 16.7295C5.56448 9.88361 11.229 5.09528 16.8566 6.49591C17.2357 6.59027 17.262 7.18866 16.8935 7.32647Z" fill="#E9FFD9"/>
<path d="M10.289 14.6491L8.04501 13.1925C7.7151 12.9783 7.60199 12.5038 7.79234 12.1326C7.98268 11.7615 8.40441 11.6343 8.73441 11.8484L10.9784 13.3051C11.3083 13.5192 11.4214 13.9937 11.231 14.3648C11.04 14.7372 10.618 14.8627 10.289 14.6491Z" fill="#9CEB63"/>
<path d="M7.45863 18.6712C7.1201 18.6712 6.82467 18.3905 6.77648 18.0026C6.72372 17.5783 6.98682 17.1862 7.36406 17.1269L9.06061 16.8602C9.43717 16.8002 9.7863 17.0968 9.83906 17.5212C9.89182 17.9455 9.62872 18.3376 9.25148 18.3969C7.41967 18.6849 7.52734 18.6712 7.45863 18.6712Z" fill="#9CEB63"/>
<path d="M12.7054 11.4888C12.4327 11.4888 12.1744 11.3056 12.0659 11.0037L11.4236 9.21724C11.2809 8.82 11.4513 8.36777 11.8044 8.20707C12.1577 8.04637 12.5595 8.2383 12.7023 8.63544L13.3446 10.4219C13.5279 10.9319 13.193 11.4888 12.7054 11.4888Z" fill="#9CEB63"/>
<path d="M18.5104 14.365C18.3201 13.9938 18.4332 13.5194 18.7631 13.3052L21.0071 11.8485C21.3369 11.6343 21.7587 11.7616 21.9491 12.1327C22.1395 12.5039 22.0263 12.9783 21.6964 13.1926L19.4525 14.6492C19.124 14.8623 18.7017 14.7378 18.5104 14.365Z" fill="#9CEB63"/>
<path d="M17.036 11.4888C16.549 11.4888 16.2134 10.9324 16.3968 10.4219L17.0391 8.63544C17.1819 8.2382 17.5838 8.04637 17.937 8.20707C18.2901 8.36777 18.4605 8.82 18.3178 9.21724L17.6755 11.0037C17.567 11.3056 17.3087 11.4888 17.036 11.4888Z" fill="#9CEB63"/>
<path d="M10.2668 24.1429C9.70234 24.1429 9.36605 23.405 9.72364 22.8897L10.7779 21.37C11.0123 21.0322 11.4456 20.9719 11.746 21.2357C12.0462 21.4993 12.0997 21.987 11.8654 22.3247L10.8111 23.8445C10.6749 24.0404 10.4719 24.1429 10.2668 24.1429Z" fill="#9CEB63"/>
<path d="M22.2828 18.6712C22.2143 18.6712 22.3413 18.688 20.4899 18.397C20.1127 18.3377 19.8497 17.9456 19.9024 17.5212C19.9551 17.0969 20.3029 16.8004 20.6809 16.8602L22.3774 17.1269C22.7547 17.1861 23.0177 17.5782 22.9649 18.0026C22.9167 18.3906 22.6213 18.6712 22.2828 18.6712Z" fill="#9CEB63"/>
<path d="M14.8707 25.9245C14.4899 25.9245 14.1811 25.5771 14.1811 25.1486V22.2343C14.1811 21.8058 14.4899 21.4584 14.8707 21.4584C15.2516 21.4584 15.5604 21.8058 15.5604 22.2343V25.1486C15.5604 25.5772 15.2516 25.9245 14.8707 25.9245Z" fill="#9CEB63"/>
<path d="M19.4746 24.1429C19.2695 24.1429 19.0665 24.0404 18.9305 23.8444L17.8761 22.3247C17.6418 21.9869 17.6952 21.4993 17.9955 21.2356C18.2956 20.9721 18.7291 21.0321 18.9636 21.3699L20.0179 22.8896C20.3747 23.404 20.0398 24.1429 19.4746 24.1429Z" fill="#9CEB63"/>
<path d="M26.6379 45C34.0176 45 40 38.2698 40 29.9677C40 21.6655 34.0176 14.9353 26.6379 14.9353C19.2583 14.9353 13.2759 21.6655 13.2759 29.9677C13.2759 38.2698 19.2583 45 26.6379 45Z" fill="#9CEB63"/>
<path d="M35.9032 21.1969C34.6408 20.8443 34.5221 20.9988 34.2453 20.7107C32.213 18.5949 29.4816 17.3162 26.4852 17.3611C20.3382 17.4532 15.431 23.0517 15.431 29.9678C15.431 33.9662 17.0864 37.5302 19.668 39.8405C19.9627 40.1042 19.8453 40.2597 20.3514 41.6127C20.6157 42.3192 19.9032 42.9759 19.333 42.5562C15.7009 39.8835 13.2962 35.2758 13.276 30.0342C13.2447 21.8832 18.9191 15.2289 26.1601 14.9448C30.2978 14.7824 34.0336 16.7381 36.578 19.9226C37.0322 20.4911 36.5627 21.3812 35.9032 21.1969Z" fill="#BEFA91"/>
<path d="M26.6379 42.5754C32.8273 42.5754 37.8448 36.9307 37.8448 29.9677C37.8448 23.0046 32.8273 17.3599 26.6379 17.3599C20.4485 17.3599 15.431 23.0046 15.431 29.9677C15.431 36.9307 20.4485 42.5754 26.6379 42.5754Z" fill="#BEFA91"/>
<path d="M33.3582 20.7737C32.138 20.7038 30.8929 20.8207 29.6769 21.1338C29.6126 21.1504 29.5454 21.1454 29.4834 21.12C24.0928 18.9148 18.2758 23.401 18.2758 29.9677C18.2758 32.4279 19.0963 34.0469 19.3048 34.4768C19.3365 34.5421 19.3504 34.6158 19.3455 34.69C19.2557 36.057 19.334 37.4633 19.5872 38.8432C19.6554 39.2147 19.2621 39.467 19.0152 39.209C16.8584 36.9561 15.4912 33.76 15.4329 30.2045C15.3175 23.1589 20.4318 17.3245 26.6956 17.3601C29.3008 17.3749 31.6962 18.39 33.5928 20.0816C33.8573 20.3175 33.6953 20.793 33.3582 20.7737Z" fill="#DAFFBF"/>
<path d="M26.6379 39.375C31.2562 39.375 35 35.1632 35 29.9677C35 24.7722 31.2562 20.5603 26.6379 20.5603C22.0197 20.5603 18.2758 24.7722 18.2758 29.9677C18.2758 35.1632 22.0197 39.375 26.6379 39.375Z" fill="#DAFFBF"/>
<path d="M28.4556 21.5185C23.8253 23.2494 20.3202 27.7528 19.4957 33.2788C19.4379 33.6656 18.9609 33.7218 18.8352 33.3559C18.474 32.3046 18.2758 31.1621 18.2758 29.9677C18.2758 23.8164 23.3657 19.5137 28.4224 20.7723C28.763 20.857 28.7866 21.3948 28.4556 21.5185Z" fill="#E9FFD9"/>
<path d="M24.6925 25.3369C24.4198 25.3369 24.1616 25.1538 24.053 24.852L23.4755 23.247C23.3326 22.8497 23.5028 22.3974 23.856 22.2367C24.2091 22.0759 24.611 22.2675 24.754 22.6648L25.3315 24.2698C25.5154 24.7808 25.1791 25.3369 24.6925 25.3369Z" fill="#9CEB63"/>
<path d="M22.4853 28.1665L20.4698 26.8572C20.14 26.643 20.027 26.1684 20.2174 25.7973C20.4078 25.4263 20.8297 25.299 21.1595 25.5134L23.175 26.8226C23.5048 27.0369 23.6179 27.5115 23.4274 27.8825C23.2365 28.2546 22.8143 28.3803 22.4853 28.1665Z" fill="#9CEB63"/>
<path d="M19.9776 31.791C19.639 31.791 19.3436 31.5104 19.2954 31.1223C19.2428 30.6981 19.5059 30.3059 19.8831 30.2467L21.4081 30.0071C21.785 29.9479 22.1338 30.2439 22.1865 30.6683C22.2391 31.0926 21.9761 31.4847 21.5989 31.5439C19.9429 31.8041 20.0468 31.791 19.9776 31.791Z" fill="#9CEB63"/>
<path d="M29.8485 27.8825C29.6579 27.5115 29.771 27.037 30.1009 26.8226L32.1164 25.5134C32.4462 25.2992 32.8681 25.4263 33.0585 25.7973C33.249 26.1684 33.1359 26.6429 32.806 26.8572L30.7905 28.1665C30.4611 28.3805 30.0392 28.2542 29.8485 27.8825Z" fill="#9CEB63"/>
<path d="M33.2983 31.791C33.2291 31.791 33.3264 31.8032 31.677 31.544C31.2997 31.4848 31.0366 31.0927 31.0894 30.6684C31.1421 30.244 31.4897 29.9481 31.8678 30.0072L33.3928 30.2468C33.77 30.306 34.0331 30.6981 33.9804 31.1224C33.9322 31.5104 33.6369 31.791 33.2983 31.791Z" fill="#9CEB63"/>
<path d="M28.5833 25.3369C28.0972 25.3369 27.7603 24.7812 27.9444 24.2697L28.5219 22.6647C28.6646 22.2675 29.0666 22.0758 29.4199 22.2366C29.773 22.3974 29.9433 22.8497 29.8003 23.2469L29.2228 24.8519C29.1144 25.1538 28.856 25.3369 28.5833 25.3369Z" fill="#9CEB63"/>
<path d="M26.6379 38.3082C26.2571 38.3082 25.9483 37.9608 25.9483 37.5323V34.9138C25.9483 34.4853 26.2571 34.1379 26.6379 34.1379C27.0188 34.1379 27.3276 34.4853 27.3276 34.9138V37.5323C27.3276 37.9608 27.0188 38.3082 26.6379 38.3082Z" fill="#9CEB63"/>
<path d="M22.5012 36.708C21.9335 36.708 21.6029 35.967 21.9579 35.455L22.9044 34.0894C23.1386 33.7516 23.5719 33.6912 23.8724 33.9547C24.1727 34.2182 24.2263 34.7058 23.9922 35.0437L23.0456 36.4093C22.9096 36.6054 22.7065 36.708 22.5012 36.708Z" fill="#9CEB63"/>
<path d="M30.7746 36.708C30.5694 36.708 30.3663 36.6054 30.2303 36.4092L29.2838 35.0436C29.0496 34.7058 29.1032 34.2182 29.4035 33.9546C29.704 33.691 30.1373 33.7514 30.3715 34.0893L31.3181 35.4549C31.6731 35.9672 31.3421 36.708 30.7746 36.708Z" fill="#9CEB63"/>
</g>
<defs>
<clipPath id="clip0_26_526">
<rect width="40" height="45" fill="white"/>
</clipPath>
</defs>
</svg>
