<svg width="24" height="24" viewBox="0 0 24 24" fill="none" xmlns="http://www.w3.org/2000/svg">
<g clip-path="url(#clip0_26_649)">
<path d="M23.9372 9.20541C23.7792 8.71944 23.3482 8.37538 22.8402 8.32942L15.9121 7.70044L13.1741 1.29017C12.972 0.819219 12.512 0.515259 12 0.515259C11.488 0.515259 11.0279 0.819219 10.827 1.29017L8.089 7.70044L1.15981 8.32942C0.651866 8.37629 0.221744 8.72035 0.0628055 9.20541C-0.0952172 9.69138 0.0507203 10.2244 0.434882 10.5613L5.67197 15.1535L4.12782 21.9545C4.01484 22.4546 4.20893 22.9717 4.62386 23.2716C4.84688 23.4337 5.10891 23.5146 5.37186 23.5146C5.59781 23.5146 5.82395 23.4545 6.02592 23.3337L12 19.7616L17.973 23.3337C18.4112 23.5955 18.9622 23.5716 19.3762 23.2716C19.7911 22.9717 19.9852 22.4546 19.8722 21.9545L18.3281 15.1535L23.5652 10.5613C23.9491 10.2244 24.0953 9.69248 23.9372 9.20541Z" fill="#FFC839"/>
</g>
<defs>
<clipPath id="clip0_26_649">
<rect width="24" height="24" fill="white"/>
</clipPath>
</defs>
</svg>
