<svg height="512" viewBox="0 0 56 60" width="512" xmlns="http://www.w3.org/2000/svg"><g id="Page-1" fill="none" fill-rule="evenodd"><g id="001---Fragrant-Droplet" fill="rgb(0,0,0)" fill-rule="nonzero"><path id="Shape" d="m28 60c11.5927251-.012676 20.987324-9.4072749 21-21 0-15.734-17.508-36.057-19.5-38.322-.388171-.41259447-.92951-.64655551-1.496-.64655551s-1.107829.23396104-1.496.64655551c-2 2.265-19.508 22.588-19.508 38.322.01267598 11.5927251 9.4072749 20.987324 21 21zm0-58c.771.88 19 21.742 19 37 0 10.4934102-8.5065898 19-19 19s-19-8.5065898-19-19c0-15.258 18.229-36.12 19-37z"/><path id="Shape" d="m18.434 41.041c-2.2965259 2.9951283-2.5023121 7.0981152-.517 10.308.126395.1814728.3097523.3155594.521.381.6649979.194506 1.3551887.289205 2.048.281 2.9954198-.0389734 5.7902012-1.5129844 7.514-3.963 1.7247836 2.4494134 4.5195166 3.9232028 7.515 3.963.6924859.0082539 1.3823542-.0864471 2.047-.281.2112477-.0654406.394605-.1995272.521-.381 1.9867639-3.2093807 1.7813404-7.3130739-.516-10.308 3.5890241-1.1040993 6.1394601-4.2884771 6.433-8.032.002625-.2204701-.0676877-.435627-.2-.612-2.4189606-2.8601403-6.3519392-3.9309988-9.887-2.692.1227171-3.7668965-2.1052212-7.2144217-5.59-8.65-.2110317-.0740152-.4409683-.0740152-.652 0-3.4847788 1.4355783-5.7127171 4.8831035-5.59 8.65-3.5339328-1.2352373-7.4635994-.1634377-9.881 2.695-.1323123.176373-.202625.3915299-.2.612.2951423 3.7425514 2.8457037 6.9254015 6.434 8.029zm.941 8.86c-1.325474-2.5610074-1.0045232-5.6644479.817-7.9.2101703-.2981367.438959-.582703.685-.852 1.3922015-1.6415707 3.4622187-2.5513752 5.613-2.467-.9793471 2.4375259-.8471615 5.1809233.362 7.513-.105.163-.206.34-.313.488-1.5203341 2.4193934-4.3456798 3.6881172-7.164 3.217zm17.25 0c-2.8204289.4716905-5.6477476-.7993603-7.167-3.222-.212117-.2950271-.4083941-.601126-.588-.917-1.1274609-1.8597055-1.345057-4.1321297-.591-6.172 1.6005923 1.349755 3.6272636 2.0894316 5.721 2.088.4860434-.0058927.9710045-.0473366 1.451-.124.121.149.242.285.362.453 1.8184059 2.2345079 2.1373795 5.3350721.812 7.893zm5.343-16.575c-.4266394 2.8368107-2.4914192 5.1523782-5.261 5.9-.3208103.1054724-.6477495.1912981-.979.257-.026 0-.053.008-.079.013-2.0889348.4959493-4.2898921.0032417-5.968-1.336 2.2139268-1.3961134 3.7039016-3.6932187 4.076-6.284.176-.069.341-.142.527-.2 2.659194-1.0539757 5.691409-.4032569 7.684 1.649zm-13.968-10.241c2.5622217 1.3002004 4.1061298 3.9992882 3.928 6.867.0021906.3659654-.0188517.7317007-.063 1.095-.1647323 2.1544018-1.3040964 4.1156989-3.094 5.326-.6292644-2.5433358-2.3410233-4.6833999-4.684-5.856-.01-.177-.015-.365-.015-.565-.1781298-2.8677118 1.3657783-5.5667996 3.928-6.867zm-6.284 8.592c.364.119.709.258 1.011.388 1.9866344.8484768 3.4800282 2.5537934 4.059 4.635-2.5972174-.170349-5.1391103.8032274-6.958 2.665-.178-.046-.351-.079-.534-.139-2.7761902-.7377723-4.8462904-3.0579833-5.264-5.9 1.9925451-2.053837 5.0263123-2.7047194 7.686-1.649z"/><path id="Shape" d="m7 14c.55228475 0 1-.4477153 1-1v-2c0-.5522847-.44771525-1-1-1s-1 .4477153-1 1v2c0 .5522847.44771525 1 1 1z"/><path id="Shape" d="m8 17c0-.5522847-.44771525-1-1-1s-1 .4477153-1 1v2c0 .5522847.44771525 1 1 1s1-.4477153 1-1z"/><path id="Shape" d="m3 16h2c.55228475 0 1-.4477153 1-1s-.44771525-1-1-1h-2c-.55228475 0-1 .4477153-1 1s.44771525 1 1 1z"/><path id="Shape" d="m9 16h2c.5522847 0 1-.4477153 1-1s-.4477153-1-1-1h-2c-.55228475 0-1 .4477153-1 1s.44771525 1 1 1z"/><path id="Shape" d="m53.5 52.5c.2651948-.0000566.5195073-.1054506.707-.293l1.5-1.5c.3789722-.3923789.3735524-1.0160848-.0121814-1.4018186s-1.0094397-.3911536-1.4018186-.0121814l-1.5 1.5c-.2859079.2859943-.3714219.7160366-.216678 1.0896546.1547439.3736179.5192821.6172591.923678.6173454z"/><path id="Shape" d="m49.793 53.793-1.5 1.5c-.2599566.2510745-.3642126.6228779-.2726972.9725073.0915155.3496295.3645604.6226744.7141899.7141899.3496294.0915154.7214328-.0127406.9725073-.2726972l1.5-1.5c.3789722-.3923789.3735524-1.0160848-.0121814-1.4018186s-1.0094397-.3911536-1.4018186-.0121814z"/><path id="Shape" d="m48.293 49.293c-.3903819.3904999-.3903819 1.0235001 0 1.414l1.5 1.5c.3923789.3789722 1.0160848.3735524 1.4018186-.0121814s.3911536-1.0094397.0121814-1.4018186l-1.5-1.5c-.3904999-.3903819-1.0235001-.3903819-1.414 0z"/><path id="Shape" d="m54.293 56.707c.3923789.3789722 1.0160848.3735524 1.4018186-.0121814s.3911536-1.0094397.0121814-1.4018186l-1.5-1.5c-.3923789-.3789722-1.0160848-.3735524-1.4018186.0121814s-.3911536 1.0094397-.0121814 1.4018186z"/><path id="Shape" d="m3.5 29c1.41561786 0 2.69184486-.8527476 3.23357836-2.160608s.24228836-2.8132727-.75870463-3.8142657c-1.00099298-1.000993-2.50640538-1.3004382-3.81426574-.7587047-1.30786037.5417335-2.16060799 1.8179605-2.16060799 3.2335784 0 1.9329966 1.56700338 3.5 3.5 3.5zm0-5c.82842712 0 1.5.6715729 1.5 1.5s-.67157288 1.5-1.5 1.5-1.5-.6715729-1.5-1.5.67157288-1.5 1.5-1.5z"/></g></g></svg>