<svg width="52" height="52" viewBox="0 0 52 52" fill="none" xmlns="http://www.w3.org/2000/svg">
<rect width="52" height="52" rx="18" fill="#00DE78"/>
<path d="M29.9258 37.1914C28.7891 37.6836 27.6289 38.0352 26.4453 38.2461C25.2734 38.4688 24.1602 38.5801 23.1055 38.5801C22.0625 38.5801 21.1191 38.5215 20.2754 38.4043C19.4434 38.2988 18.6113 38.1113 17.7793 37.8418C16.959 37.5605 16.25 37.2031 15.6523 36.7695C14.3164 35.8203 13.6484 34.4785 13.6484 32.7441C13.6484 31.7129 13.8887 30.752 14.3691 29.8613C14.8496 28.959 15.4766 28.2148 16.25 27.6289C17.8906 26.3633 19.6836 25.7305 21.6289 25.7305C23.9609 25.7305 25.6953 26.416 26.832 27.7871C27.3945 28.4785 27.6758 29.3164 27.6758 30.3008C27.6758 31.2852 27.207 32.1406 26.2695 32.8672C25.3438 33.582 24.3652 33.9395 23.334 33.9395C23.0879 33.9395 22.9648 33.8164 22.9648 33.5703C22.9648 33.3125 23.082 33.1309 23.3164 33.0254C23.5508 32.9082 23.832 32.8027 24.1602 32.709C24.4883 32.6035 24.8164 32.4805 25.1445 32.3398C25.9531 31.9766 26.3574 31.3906 26.3574 30.582C26.3574 29.7617 25.9824 29.1465 25.2324 28.7363C24.4941 28.3145 23.2051 28.1035 21.3652 28.1035C19.5254 28.1035 18.1016 28.5723 17.0938 29.5098C16.0859 30.4355 15.582 31.543 15.582 32.832C15.582 34.5312 16.3379 35.7383 17.8496 36.4531C19.1973 37.0977 20.8086 37.4199 22.6836 37.4199C25.9062 37.4199 28.5137 36.5 30.5059 34.6602C31.9121 33.3711 32.6152 31.748 32.6152 29.791C32.6152 28.6191 32.1992 27.4824 31.3672 26.3809C31.0039 25.8887 30.5996 25.4023 30.1543 24.9219C29.709 24.4414 29.2637 23.9609 28.8184 23.4805C28.373 23 27.9688 22.5195 27.6055 22.0391C26.7734 20.9844 26.3574 20 26.3574 19.0859C26.3574 18.1719 26.5039 17.3867 26.7969 16.7305C27.1016 16.0625 27.5 15.4883 27.9922 15.0078C28.4961 14.5156 29.0703 14.0938 29.7148 13.7422C31.0156 13.0156 32.3926 12.6523 33.8457 12.6523C35.1113 12.6523 36.2891 12.957 37.3789 13.5664C38.5742 14.2227 39.1719 15.2246 39.1719 16.5723C39.1719 17.0996 38.9844 17.5625 38.6094 17.9609C38.2344 18.3594 37.8125 18.5586 37.3438 18.5586C36.875 18.5586 36.4883 18.4238 36.1836 18.1543C35.8906 17.8848 35.7441 17.5859 35.7441 17.2578C35.7441 16.918 35.8848 16.5605 36.166 16.1855C36.459 15.7988 36.6055 15.4824 36.6055 15.2363C36.6055 14.9785 36.5 14.7441 36.2891 14.5332C36.0781 14.3223 35.8086 14.1641 35.4805 14.0586C34.8242 13.8594 34.2266 13.7598 33.6875 13.7598C32.4453 13.7598 31.3789 14.1289 30.4883 14.8672C29.5977 15.6055 29.1523 16.6309 29.1523 17.9434C29.1523 18.6582 29.5977 19.4961 30.4883 20.457C30.8867 20.8789 31.3203 21.3301 31.7891 21.8105C32.2695 22.2793 32.75 22.7832 33.2305 23.3223C33.7109 23.8613 34.1504 24.418 34.5488 24.9922C35.4395 26.2578 35.8848 27.5703 35.8848 28.9297C35.8848 30.2891 35.6152 31.5195 35.0762 32.6211C34.5371 33.7227 33.8281 34.6367 32.9492 35.3633C32.082 36.0781 31.0742 36.6875 29.9258 37.1914Z" fill="white"/>
</svg>
