<svg width="26" height="26" viewBox="0 0 26 26" fill="none" xmlns="http://www.w3.org/2000/svg">
<rect width="26" height="26" rx="10" fill="#00DE78"/>
<g clip-path="url(#clip0_155_849)">
<path d="M17.6667 7.66667H17.328L15.872 5.77867C15.6844 5.5372 15.4442 5.34161 15.1698 5.2067C14.8953 5.07179 14.5938 5.00111 14.288 5H11.712C11.4062 5.00111 11.1047 5.07179 10.8302 5.2067C10.5558 5.34161 10.3156 5.5372 10.128 5.77867L8.672 7.66667H8.33333C7.4496 7.66773 6.60237 8.01925 5.97748 8.64415C5.35259 9.26904 5.00106 10.1163 5 11L5 17.6667C5.00106 18.5504 5.35259 19.3976 5.97748 20.0225C6.60237 20.6474 7.4496 20.9989 8.33333 21H17.6667C18.5504 20.9989 19.3976 20.6474 20.0225 20.0225C20.6474 19.3976 20.9989 18.5504 21 17.6667V11C20.9989 10.1163 20.6474 9.26904 20.0225 8.64415C19.3976 8.01925 18.5504 7.66773 17.6667 7.66667V7.66667ZM11.184 6.59333C11.2464 6.5127 11.3265 6.44738 11.418 6.40232C11.5095 6.35727 11.61 6.33367 11.712 6.33333H14.288C14.39 6.33377 14.4905 6.35741 14.582 6.40246C14.6735 6.4475 14.7535 6.51278 14.816 6.59333L15.644 7.66667H10.356L11.184 6.59333ZM19.6667 17.6667C19.6667 18.1971 19.456 18.7058 19.0809 19.0809C18.7058 19.456 18.1971 19.6667 17.6667 19.6667H8.33333C7.8029 19.6667 7.29419 19.456 6.91912 19.0809C6.54405 18.7058 6.33333 18.1971 6.33333 17.6667V11C6.33333 10.4696 6.54405 9.96086 6.91912 9.58579C7.29419 9.21071 7.8029 9 8.33333 9H17.6667C18.1971 9 18.7058 9.21071 19.0809 9.58579C19.456 9.96086 19.6667 10.4696 19.6667 11V17.6667Z" fill="white"/>
<path d="M13 10.3333C12.2089 10.3333 11.4355 10.5679 10.7777 11.0074C10.1199 11.4469 9.60723 12.0716 9.30448 12.8025C9.00173 13.5335 8.92252 14.3377 9.07686 15.1136C9.2312 15.8896 9.61216 16.6023 10.1716 17.1617C10.731 17.7211 11.4437 18.1021 12.2196 18.2564C12.9956 18.4108 13.7998 18.3316 14.5307 18.0288C15.2616 17.7261 15.8864 17.2134 16.3259 16.5556C16.7654 15.8978 17 15.1244 17 14.3333C16.9989 13.2727 16.5772 12.2559 15.8273 11.506C15.0773 10.7561 14.0605 10.3343 13 10.3333V10.3333ZM13 16.9999C12.4726 16.9999 11.957 16.8436 11.5185 16.5505C11.08 16.2575 10.7382 15.841 10.5363 15.3538C10.3345 14.8665 10.2817 14.3303 10.3846 13.813C10.4875 13.2958 10.7414 12.8206 11.1144 12.4477C11.4873 12.0747 11.9625 11.8207 12.4798 11.7179C12.997 11.615 13.5332 11.6678 14.0205 11.8696C14.5078 12.0714 14.9242 12.4132 15.2173 12.8518C15.5103 13.2903 15.6667 13.8059 15.6667 14.3333C15.6667 15.0405 15.3857 15.7188 14.8856 16.2189C14.3855 16.719 13.7072 16.9999 13 16.9999Z" fill="white"/>
</g>
<defs>
<clipPath id="clip0_155_849">
<rect width="16" height="16" fill="white" transform="translate(5 5)"/>
</clipPath>
</defs>
</svg>
