<svg id="Flat" enable-background="new 0 0 123.998 123.986" height="512" viewBox="0 0 123.998 123.986" width="512" xmlns="http://www.w3.org/2000/svg"><g><g id="XMLID_21_"><g fill="#ffd7d2"><path d="m116.29 109.346 1.96 6.02c3.79-4.72 6.86-18.93 5.36-42.06-1.5-23.09-5.51-39.59-10.37-46.57-1.89-2.72-4.04-4.89-6.13-6.63 0 0 2.92-14.24-5.42-18.55-4.2-2.17-10.22-1.96-15.14-.05h-.01c-.48.18-.95.38-1.4.6-.79.38-1.55.81-2.25 1.28-1.57 1.04-2.87 2.31-3.74 3.76-6.3-.01-12.61 3.29-14.83 7.41 0 0-9.33 5.19-14.19 12.18-4.86 6.98-8.87 23.48-10.37 46.57-1.5 23.13 1.57 37.34 5.36 42.06l1.96-6.02c.38 3.01 2.01 5.37 4.92 7.08-2.52 1.88-4.25 4.4-5.2 7.56h7.58 23.88 6.85 23.88 7.58c-.95-3.16-2.68-5.68-5.2-7.56 2.91-1.71 4.54-4.07 4.92-7.08z"/><path d="m34.3 103.866v-.01c1.19-.08 2.14-1.07 2.14-2.29v-6.16c0-1.27-1.03-2.3-2.3-2.3h-30.28c-1.27 0-2.3 1.03-2.3 2.3v6.16c0 1.22.95 2.21 2.14 2.29v.01l-1.97 10.74h-.01l-1.72 9.38h5.19 13.81 19l-1.96-10.64z"/></g><g><path d="m47.86 69.886c.6 2.53 1.65 6.65 2.88 10.18-2.61-.69-4.99-2.88-6.15-6.02-1.75-4.76.01-9.89 3.94-11.45.38-.16.77-.26 1.16-.33.13 1.29.27 2.57.44 3.82-.23.06-.46.16-.69.28-1.04.57-1.67 1.65-1.67 2.79 0 .24.03.49.09.73z" fill="#f7b6ad"/><path d="m114.57 62.596c3.92 1.56 5.68 6.69 3.93 11.45-1.15 3.14-3.53 5.33-6.15 6.02 1.23-3.53 2.28-7.65 2.88-10.18.06-.25.09-.5.09-.74 0-1.14-.62-2.21-1.66-2.78-.23-.12-.46-.22-.69-.28.16-1.25.31-2.53.44-3.82.39.07.77.17 1.16.33z" fill="#f7b6ad"/><path d="m86.55 1.506c3.44 1.66 4.93 5.5 2.88 9.95-.52-3.74-3.3-7.26-6.54-8.07.7-.47 1.46-.9 2.25-1.28.45-.22.92-.42 1.4-.6h.01z" fill="#f9b132"/><path d="m79.87 7.186c-.24-.02-.48-.03-.72-.04.87-1.45 2.17-2.72 3.74-3.76 3.24.81 6.02 4.33 6.54 8.07-1.16-.16-2.32-.27-3.44-.3-.29-.63-.62-1.17-.99-1.62-.58-.73-1.26-1.25-2.03-1.61-.91-.43-1.94-.65-3.1-.74z" fill="#ffc05a"/><path d="m101.69 1.556c8.34 4.31 5.42 18.55 5.42 18.55-3.28-2.72-6.44-4.4-8.33-5.55-2.34-1.43-5.84-2.57-9.35-3.09v-.01c2.05-4.45.56-8.29-2.88-9.95 4.92-1.91 10.94-2.12 15.14.05z" fill="#9e4949"/><path d="m123.61 73.306c1.5 23.13-1.57 37.34-5.36 42.06l-1.96-6.02c-.38 3.01-2.01 5.37-4.92 7.08-.89-.66-1.87-1.24-2.96-1.74l-.02-.28c-.29-4.85-3.45-8.83-7.72-10.43 0-1.39.06-2.58.19-3.47.02-.14.05-.28.07-.4 1.14-5.78 7.03-10.68 9.72-15.91.59-1.14 1.16-2.58 1.7-4.13 2.62-.69 5-2.88 6.15-6.02 1.75-4.76-.01-9.89-3.93-11.45-.39-.16-.77-.26-1.16-.33l.24-2.34c.19-1.87-.44-3.73-1.74-5.09-2.36-2.48-6.3-6.8-9.12-10.93-4.3-6.3-7.09-15.48-7.09-15.48 2.5-1.77 5.81-9.9 3.08-13.87 1.89 1.15 5.05 2.83 8.33 5.55 2.09 1.74 4.24 3.91 6.13 6.63 4.86 6.98 8.87 23.48 10.37 46.57z" fill="#a35757"/><path d="m116.57 123.986h-7.58l-.58-9.3c1.09.5 2.07 1.08 2.96 1.74 2.52 1.88 4.25 4.4 5.2 7.56z" fill="#ef9d26"/><path d="m108.63 68.906v-.01s.01-.01.02-.04l.68-1.23c.73-1.32 2.24-1.92 3.64-1.54.23.06.46.16.69.28 1.04.57 1.66 1.64 1.66 2.78 0 .24-.03.49-.09.74-.6 2.53-1.65 6.65-2.88 10.18-.54 1.55-1.11 2.99-1.7 4.13-2.69 5.23-8.58 10.13-9.72 15.91-.02.12-.05.26-.07.4 0 0-2.39-1.32-6.71-.99-4.15.32-6.87 2.19-7.08 2.35.01-.5.04-.99.06-1.47.18-3.33.52-5.95 1.11-7.09.8-1.55 1.99-3.08 3.33-4.53 2.66-2.93 5.87-5.59 7.47-7.62 1.57-2 3.39-7.28 4.45-10.67.43-1.39 1.72-2.28 3.11-2.28.29 0 .57.03.86.11.44.12.83.32 1.17.59z" fill="#fec4b9"/><path d="m108.79 59.866c2.98.95.11 8.36-.14 8.99-.01.03-.02.04-.02.04v.01c-.34-.27-.73-.47-1.17-.59-.29-.08-.57-.11-.86-.11-1.39 0-2.68.89-3.11 2.28-1.06 3.39-2.88 8.67-4.45 10.67-1.6 2.03-4.81 4.69-7.47 7.62l-.01-.01s-3.88-5.19-1.88-10.94c1.34-3.87 4.95-5.54 7.18-6.23 1.04-.32 1.89-1.09 2.26-2.11.33-.91.89-1.99 1.83-2.67.79-.58 1.58-.97 2.24-1.23.98-.39 1.72-1.22 2.06-2.23.6-1.73 1.75-4.06 3.54-3.49z" fill="#d6eae8"/><path d="m92.79 103.816c.94-.31 1.93-.51 2.97-.57.12-.01.24-.01.36-.01 1.6-.06 3.13.21 4.55.74 4.27 1.6 7.43 5.58 7.72 10.43l.02.28.58 9.3h-23.88l-.51-8.07v-.03c-.02-.25-.02-.5-.02-.75 0-2.66.88-5.14 2.38-7.14 1.45-1.93 3.47-3.41 5.83-4.18z" fill="#ffc05a"/><path d="m96.12 103.236c-.12 0-.24 0-.36.01-1.04.06-2.03.26-2.97.57-2.36.77-4.38 2.25-5.83 4.18 0-2.13.03-4.22.11-6.13.21-.16 2.93-2.03 7.08-2.35 4.32-.33 6.71.99 6.71.99-.13.89-.19 2.08-.19 3.47-1.42-.53-2.95-.8-4.55-.74z" fill="#20bab6"/><path d="m82.97 7.926c.77.36 1.45.88 2.03 1.61.37.45.7.99.99 1.62 1.12.03 2.28.14 3.44.3v.01c3.51.52 7.01 1.66 9.35 3.09 2.73 3.97-.58 12.1-3.08 13.87-2.5 1.78-7.04 2.08-14.15 2.08s-11.65-.3-14.15-2.08c-2.51-1.77-5.3-9.76-3.08-13.87 2.22-4.12 8.53-7.42 14.83-7.41.24.01.48.02.72.04 1.16.09 2.19.31 3.1.74z" fill="#ad6a6a"/><path d="m76.03 101.716c-.02-.45-.04-.89-.06-1.32 1.81.43 3.68.67 5.58.67s3.77-.24 5.58-.67c-.02.48-.05.97-.06 1.47-.08 1.91-.11 4-.11 6.13-1.5 2-2.38 4.48-2.38 7.14 0 .25 0 .5.02.75v.03c-.85.24-1.86.39-3.05.39-1.07 0-1.99-.12-2.79-.32l.01-.1c.02-.25.02-.5.02-.75 0-2.82-.99-5.43-2.65-7.49 0-2.07-.03-4.08-.11-5.93z" fill="#f7b6ad"/><path d="m84.6 115.916.51 8.07h-6.85l.5-8c.8.2 1.72.32 2.79.32 1.19 0 2.2-.15 3.05-.39z" fill="#ef9d26"/><path d="m70.58 103.816c2.22.72 4.14 2.07 5.56 3.83 1.66 2.06 2.65 4.67 2.65 7.49 0 .25 0 .5-.02.75l-.01.1-.5 8h-23.88l.58-9.3.02-.28c.28-4.74 3.31-8.66 7.44-10.32 1.49-.6 3.12-.91 4.83-.85.12 0 .24 0 .36.01 1.04.06 2.03.26 2.97.57z" fill="#ffc05a"/><path d="m67.25 103.236c-1.71-.06-3.34.25-4.83.85.01-1.37-.05-2.55-.17-3.45 0 0 2.65-1.45 6.97-1.12 3.81.29 6.28 1.83 6.81 2.2.08 1.85.11 3.86.11 5.93-1.42-1.76-3.34-3.11-5.56-3.83-.94-.31-1.93-.51-2.97-.57-.12-.01-.24-.01-.36-.01z" fill="#20bab6"/><path d="m54.47 68.896c.34-.26.73-.46 1.16-.58.29-.08.58-.11.86-.11 1.4 0 2.68.89 3.12 2.28 1.06 3.39 2.87 8.67 4.45 10.67 1.63 2.06 4.93 4.78 7.63 7.78 1.27 1.41 2.4 2.88 3.17 4.37.59 1.13.93 3.76 1.11 7.09.02.43.04.87.06 1.32-.53-.37-3-1.91-6.81-2.2-4.32-.33-6.97 1.12-6.97 1.12-.02-.19-.05-.37-.08-.53-1.14-5.78-7.03-10.68-9.73-15.91-.58-1.14-1.16-2.58-1.7-4.13-1.23-3.53-2.28-7.65-2.88-10.18-.06-.24-.09-.49-.09-.73 0-1.14.63-2.22 1.67-2.79.23-.12.46-.22.69-.28 1.39-.38 2.91.22 3.64 1.54z" fill="#fec4b9"/><path d="m73.69 77.826c2 5.75-2 11.11-2 11.11-2.7-3-6-5.72-7.63-7.78-1.58-2-3.39-7.28-4.45-10.67-.44-1.39-1.72-2.28-3.12-2.28-.28 0-.57.03-.86.11-.43.12-.82.32-1.16.58 0 0-3-8.04.11-9.03 1.79-.57 2.94 1.76 3.54 3.49.34 1.01 1.07 1.84 2.06 2.23.66.26 1.45.65 2.24 1.23.94.68 1.5 1.76 1.83 2.67.37 1.02 1.22 1.79 2.26 2.11 2.23.69 5.84 2.36 7.18 6.23z" fill="#d6eae8"/><path d="m67.4 28.426s-2.8 9.18-7.09 15.48c-2.82 4.13-6.76 8.45-9.13 10.93-1.3 1.36-1.93 3.22-1.73 5.09l.24 2.34c-.39.07-.78.17-1.16.33-3.93 1.56-5.69 6.69-3.94 11.45 1.16 3.14 3.54 5.33 6.15 6.02.54 1.55 1.12 2.99 1.7 4.13 2.7 5.23 8.59 10.13 9.73 15.91.03.16.06.34.08.53.12.9.18 2.08.17 3.45-4.13 1.66-7.16 5.58-7.44 10.32l-.02.28c-1.09.5-2.07 1.08-2.96 1.74-2.91-1.71-4.54-4.07-4.92-7.08l-1.96 6.02c-3.79-4.72-6.86-18.93-5.36-42.06 1.5-23.09 5.51-39.59 10.37-46.57 4.86-6.99 14.19-12.18 14.19-12.18-2.22 4.11.57 12.1 3.08 13.87z" fill="#a35757"/><path d="m54.96 114.686-.58 9.3h-7.58c.95-3.16 2.68-5.68 5.2-7.56.89-.66 1.87-1.24 2.96-1.74z" fill="#ef9d26"/><path d="m36.04 113.346 1.96 10.64h-19-13.81c10.26-2.15 21.38-5.98 30.85-10.64z" fill="#f48ca7"/><path d="m36.44 95.406v6.16c0 1.22-.95 2.21-2.14 2.29-.05.01-.11.01-.16.01h-30.28c-.05 0-.11 0-.16-.01-1.19-.08-2.14-1.07-2.14-2.29v-6.16c0-1.27 1.03-2.3 2.3-2.3h30.28c1.27 0 2.3 1.03 2.3 2.3z" fill="#cdc7b9"/><path d="m34.3 103.866 1.74 9.48c-9.47 4.66-20.59 8.49-30.85 10.64h-5.19l1.72-9.38h.01c11.18-1.96 22.03-5.54 32.57-10.74z" fill="#e7f2f1"/><path d="m34.3 103.856v.01c-10.54 5.2-21.39 8.78-32.57 10.74l1.97-10.74v-.01c.05.01.11.01.16.01h30.28c.05 0 .11 0 .16-.01z" fill="#f48ca7"/></g><g id="XMLID_51_"><g><path d="m34.14 103.866.03.06c-3.02 1.49-6.08 2.85-9.15 4.06.4-1.24.59-2.6.51-4.12z" fill="#ea728c"/><path d="m36.04 113.346 1.96 10.64h-19-13.81c10.26-2.15 21.38-5.98 30.85-10.64z" fill="#ea728c"/><path d="m34.3 103.866 1.74 9.48c-9.47 4.66-20.59 8.49-30.85 10.64h-5.19l.85-4.65s20.63-.24 24.17-11.35c3.07-1.21 6.13-2.57 9.15-4.06.04-.02.09-.04.13-.06z" fill="#d6eae8"/></g><g><g><path d="m92.1 50.121c.037-.009 3.648-.597 6.104 1.132.175.123.376.183.575.183.314 0 .624-.147.818-.424.318-.452.21-1.076-.242-1.394-3.143-2.214-7.416-1.499-7.597-1.468-.543.095-.906.611-.813 1.155s.616.909 1.155.816z" fill="#ad6a6a"/><path d="m64.321 51.436c.199 0 .401-.06.576-.184 2.446-1.729 6.057-1.138 6.093-1.131.54.091 1.06-.272 1.154-.815.094-.544-.269-1.061-.813-1.155-.182-.032-4.457-.747-7.589 1.469-.451.318-.558.942-.24 1.394.196.274.505.422.819.422z" fill="#ad6a6a"/><path d="m54.298 72.088c-.159-.529-.717-.825-1.246-.671-.529.159-.829.717-.67 1.245 1.42 4.729 3.215 8.732 5.489 12.237.191.296.512.456.84.456.187 0 .375-.052.543-.161.463-.301.595-.92.294-1.383-2.168-3.344-3.886-7.178-5.25-11.723z" fill="#f7b6ad"/><path d="m110.047 71.417c-.53-.154-1.086.142-1.246.671-1.339 4.461-3.109 8.406-5.261 11.724-.301.463-.168 1.082.294 1.383.168.109.357.161.543.161.328 0 .648-.16.84-.456 2.255-3.477 4.105-7.594 5.499-12.237.16-.529-.14-1.087-.669-1.246z" fill="#f7b6ad"/><path d="m72.65 58.906c-.552 0-1 .447-1 1 0 1.455-1.185 2.64-2.64 2.64-.581 0-1.13-.183-1.588-.528-.675-.508-1.062-1.277-1.062-2.111 0-.553-.448-1-1-1s-1 .447-1 1c0 1.152.422 2.229 1.173 3.071l-1.017 1.603c-.296.467-.158 1.084.308 1.381.167.105.352.155.535.155.331 0 .655-.164.845-.464l.955-1.504c.274.12.558.213.851.277v2.021c0 .553.448 1 1 1s1-.447 1-1v-2.017c2.078-.459 3.64-2.31 3.64-4.525 0-.552-.448-.999-1-.999z" fill="#543927"/><path d="m95.36 64.43c.295-.065.581-.157.852-.276l.942 1.495c.19.302.515.467.847.467.182 0 .367-.05.532-.154.467-.294.607-.912.313-1.379l-1.022-1.621c.723-.819 1.176-1.881 1.176-3.056 0-.553-.448-1-1-1s-1 .447-1 1c0 1.455-1.185 2.64-2.64 2.64s-2.64-1.185-2.64-2.64c0-.553-.448-1-1-1s-1 .447-1 1c0 2.214 1.562 4.065 3.64 4.525v2.015c0 .553.448 1 1 1s1-.447 1-1z" fill="#543927"/><path d="m85.479 65.377c-.056.074-1.405 1.818-3.799 1.818-2.384 0-3.733-1.744-3.786-1.814-.327-.442-.953-.538-1.398-.21-.444.329-.538.955-.21 1.399.079.106 1.979 2.625 5.395 2.625 3.425 0 5.325-2.519 5.404-2.626.327-.442.233-1.063-.207-1.392-.442-.33-1.067-.239-1.399.2z" fill="#f48ca7"/><g fill="#f9b132"><path d="m67.229 103.997c-.534-.138-1.079.188-1.216.722-.377 1.481-1.154 2.755-2.375 3.896-.403.377-.425 1.01-.048 1.413.197.211.464.317.731.317.245 0 .49-.089.683-.27 1.489-1.39 2.481-3.026 2.949-4.863.134-.534-.189-1.079-.724-1.215z"/><path d="m71.198 105.543c.074-.547-.31-1.051-.857-1.125-.542-.069-1.051.31-1.125.857-.24 1.777.068 3.513.915 5.158.178.345.527.542.89.542.154 0 .311-.035.457-.111.491-.253.684-.855.431-1.347-.665-1.291-.898-2.591-.711-3.974z"/><path d="m97.318 104.559c-.125-.538-.665-.878-1.201-.747-.538.125-.873.662-.748 1.2.446 1.921 1.455 3.625 2.998 5.064.193.181.438.27.683.27.267 0 .534-.106.731-.317.377-.404.355-1.037-.048-1.413-1.266-1.182-2.055-2.508-2.415-4.057z"/><path d="m93.029 104.418c-.547.073-.932.576-.859 1.124.184 1.378-.048 2.68-.711 3.979-.251.492-.056 1.094.437 1.345.146.074.3.109.453.109.364 0 .715-.199.892-.546.842-1.649 1.148-3.384.912-5.153-.073-.546-.579-.924-1.124-.858z"/></g></g><g><g fill="#a35757"><path d="m78.958 7.867c-.301-.463-.921-.598-1.383-.295-3.294 2.135-4.892 4.91-5.516 9.58-.073.548.312 1.051.859 1.124.045.006.089.009.134.009.493 0 .923-.365.99-.867.544-4.075 1.84-6.365 4.622-8.168.462-.3.594-.919.294-1.383z"/><path d="m82.732 9.865c.431-.346.5-.975.155-1.405-.347-.433-.976-.5-1.406-.155-3.45 2.766-4.59 6.318-3.811 11.879.07.5.498.861.989.861.046 0 .093-.003.14-.01.547-.076.928-.582.852-1.129-.792-5.648.659-8.099 3.081-10.041z"/><path d="m87.393 12.793c-.031-.552-.503-.962-1.054-.942-.552.03-.974.502-.943 1.054.211 3.776 1.566 5.215 4.026 7.826.197.209.462.314.728.314.246 0 .493-.09.686-.272.402-.378.421-1.012.042-1.413-2.345-2.49-3.315-3.519-3.485-6.567z"/><path d="m84.653 9.74c-.517-.201-1.095.054-1.295.568-1.303 3.342-1.764 6.055-.473 10.809.121.445.524.738.964.738.086 0 .175-.011.263-.035.533-.145.848-.694.703-1.227-1.152-4.243-.767-6.548.407-9.559.2-.513-.054-1.093-.569-1.294z"/></g><path d="m91.559 4.735c1.39-.268 2.985-.095 4.492.484.118.045.239.066.359.066.402 0 .781-.244.934-.642.198-.516-.06-1.094-.575-1.292-1.878-.722-3.81-.921-5.587-.582-.542.104-.898.629-.793 1.171.104.543.629.896 1.17.795z" fill="#933a3a"/><path d="m99.304 8.99c-2.086-1.755-4.515-2.729-7.218-2.896-.538-.027-1.025.385-1.06.937-.034.551.385 1.025.937 1.06 2.298.142 4.278.937 6.054 2.431.188.157.416.234.643.234.285 0 .568-.121.766-.356.355-.424.301-1.055-.122-1.41z" fill="#933a3a"/></g></g></g></g></g></svg>