<?xml version="1.0"?>
<svg xmlns="http://www.w3.org/2000/svg" viewBox="0 0 512 512" width="512" height="512"><g id="Beauty_Relax_Spa_Candle_Stones" data-name="Beauty Relax Spa Candle Stones"><g id="Outline"><path d="M256,400H200a8,8,0,0,0,0,16h56a8,8,0,0,0,0-16Z"/><path d="M123.017,231.851A31.92,31.92,0,0,1,144,224H256a32.057,32.057,0,0,1,30.987,24H192a8,8,0,0,0,0,16h94.992A32.044,32.044,0,0,1,256,288H232a8,8,0,0,0,0,16h40a48.2,48.2,0,0,1,47.51,41.132,8,8,0,1,0,15.84-2.264,64.318,64.318,0,0,0-45.944-52.426c.176-.17.358-.332.532-.5a48,48,0,0,0-19.711-79.784,39.953,39.953,0,0,0-19.448-64.665,31.956,31.956,0,0,0-13.424-46.557A23.982,23.982,0,0,0,216,64H184a23.982,23.982,0,0,0-21.355,34.931,31.956,31.956,0,0,0-13.424,46.557,39.953,39.953,0,0,0-19.439,64.675A47.874,47.874,0,0,0,112.5,219.79a8,8,0,1,0,10.514,12.061ZM184,80h32a8,8,0,0,1,0,16H184a8,8,0,0,1,0-16Zm-8,32h48a16,16,0,0,1,0,32H176a16,16,0,0,1,0-32Zm-16,48h80a24.039,24.039,0,0,1,22.624,16H184a8,8,0,0,0,0,16h78.624A24.039,24.039,0,0,1,240,208H160a24,24,0,0,1,0-48Z"/><path d="M207.791,311.947a8,8,0,0,0-5.311-9.423c-1.351-.441-30.8-9.867-57.529-5.232-9.892-25.56-34.53-46.355-35.83-47.438a8,8,0,0,0-10.242,0c-1.181.983-26.638,22.433-36.242,48.443-26.614-4.464-55.594,4.8-57.118,5.3a8,8,0,0,0-5.31,9.423c.436,1.87,10.555,44.082,37.127,62.245-13.752,26.711-8.129,64.2-7.853,65.971a8,8,0,0,0,7.9,6.766c.172,0,.346,0,.519-.017,1.868-.12,42.8-3,65.661-24.214,22.858,21.211,63.792,24.094,65.66,24.214.174.012.347.017.519.017a8,8,0,0,0,7.9-6.767c.27-1.737,5.95-39.6-8.044-66.328C196.966,357.16,207.349,313.843,207.791,311.947ZM44.46,431.135c-1.09-14.968-.266-40.74,11.292-55.061C64.384,365.38,77.031,355,91.025,360.725a36.748,36.748,0,0,0-7.143,18c-1.148,10.458,2.051,21.419,9.488,32.666C80.137,424.376,56.545,429.368,44.46,431.135Zm32.171-87.448c-10.561,1.823-20.652,8.051-30.055,18.506-15.7-10.508-24.831-33.575-28.654-45.444,14.7-3.5,40.466-6.893,56.593,2.134,10.234,5.729,21.134,14.629,21.467,26.628A36.879,36.879,0,0,0,76.631,343.687Zm5.7-38.765q-2.1-1.175-4.3-2.143c5.894-15.119,18.813-29.018,26-35.971,11.175,10.769,28.989,31.878,28.989,50.525,0,19.5-7.312,31.149-21.252,34.15-.06-.06-.117-.123-.179-.18C113.347,338.972,110.018,320.421,82.329,304.922Zm80.283,126.253c-14.949-2.187-40.154-8.582-51.737-22.934-8.142-10.087-11.976-19.69-11.089-27.772a20.971,20.971,0,0,1,4.617-10.916,37.7,37.7,0,0,0,23.108,15.426,40.754,40.754,0,0,0,8.469.871,54.693,54.693,0,0,0,19.293-3.835C163.668,397.609,163.445,419.694,162.612,431.175Zm-3.633-68.537c-11.513,6.445-26.335,11.259-37.09,2.447a39.294,39.294,0,0,0,14.04-9.289c8.689-8.979,13.1-21.919,13.1-38.463,0-1.5-.1-2.985-.242-4.471,15.133-2.367,31.884.63,41.281,2.864C186.034,328.218,176.166,353.018,158.979,362.638Z"/><path d="M392,192a8,8,0,0,0,8-8V128a8,8,0,0,0-16,0v56A8,8,0,0,0,392,192Z"/><path d="M392,248a8,8,0,0,0,8-8V216a8,8,0,0,0-16,0v24A8,8,0,0,0,392,248Z"/><path d="M360,264a8,8,0,0,0,8-8V192a8,8,0,0,0-16,0v64A8,8,0,0,0,360,264Z"/><path d="M424,264a8,8,0,0,0,8-8V192a8,8,0,0,0-16,0v64A8,8,0,0,0,424,264Z"/><circle cx="360" cy="160" r="8"/><circle cx="160" cy="256" r="8"/><circle cx="424" cy="160" r="8"/><circle cx="424" cy="128" r="8"/><circle cx="360" cy="128" r="8"/><circle cx="392" cy="96" r="8"/><path d="M504,368H400V351.023c13.786-3.434,24-15.529,24-29.88,0-13.934-19.376-44.5-25.314-53.537a8,8,0,0,0-13.372,0c-5.938,9.037-25.314,39.6-25.314,53.537,0,14.351,10.214,26.446,24,29.88V368H280a8,8,0,0,0-8,8,71.537,71.537,0,0,0,8.081,33.08,7.986,7.986,0,0,0,2.99,5.213A72,72,0,0,0,344,448h96a72,72,0,0,0,60.929-33.707,7.986,7.986,0,0,0,2.99-5.213A71.537,71.537,0,0,0,512,376,8,8,0,0,0,504,368ZM376,321.143c0-5.022,7.457-19.872,16-34.1,8.543,14.221,16,29.07,16,34.1,0,8.192-7.178,14.857-16,14.857S376,329.335,376,321.143ZM490.579,400H360a8,8,0,0,0,0,16H479.138A55.8,55.8,0,0,1,440,432H344a55.8,55.8,0,0,1-39.138-16H328a8,8,0,0,0,0-16H293.421a55.549,55.549,0,0,1-4.852-16H495.431A55.549,55.549,0,0,1,490.579,400Z"/></g></g></svg>
