<svg width="24" height="24" viewBox="0 0 24 24" fill="none" xmlns="http://www.w3.org/2000/svg">
<g clip-path="url(#clip0_42_2058)">
<path d="M6.99984 24.0002C6.86823 24.0009 6.73777 23.9757 6.61593 23.9259C6.4941 23.8762 6.38328 23.8028 6.28984 23.7102C6.19611 23.6172 6.12172 23.5066 6.07095 23.3847C6.02018 23.2629 5.99404 23.1322 5.99404 23.0002C5.99404 22.8681 6.02018 22.7374 6.07095 22.6156C6.12172 22.4937 6.19611 22.3831 6.28984 22.2902L14.4598 14.1202C15.0216 13.5577 15.3372 12.7952 15.3372 12.0002C15.3372 11.2052 15.0216 10.4427 14.4598 9.88017L6.28984 1.71018C6.10154 1.52188 5.99575 1.26649 5.99575 1.00018C5.99575 0.733883 6.10154 0.478489 6.28984 0.290185C6.47814 0.101882 6.73354 -0.00390625 6.99984 -0.00390625C7.26614 -0.00390625 7.52154 0.101882 7.70984 0.290185L15.8798 8.46017C16.3455 8.92463 16.7149 9.47639 16.967 10.0838C17.219 10.6913 17.3488 11.3425 17.3488 12.0002C17.3488 12.6578 17.219 13.3091 16.967 13.9165C16.7149 14.524 16.3455 15.0757 15.8798 15.5402L7.70984 23.7102C7.6164 23.8028 7.50558 23.8762 7.38375 23.9259C7.26191 23.9757 7.13145 24.0009 6.99984 24.0002Z" fill="#374957"/>
</g>
<defs>
<clipPath id="clip0_42_2058">
<rect width="24" height="24" fill="white"/>
</clipPath>
</defs>
</svg>
