<svg width="24" height="24" viewBox="0 0 24 24" fill="none" xmlns="http://www.w3.org/2000/svg">
<rect width="24" height="24" rx="10" fill="#00DE78"/>
<g clip-path="url(#clip0_217_849)">
<g filter="url(#filter0_d_217_849)">
<path d="M10 17.3336V12.0002H7.60933C7.4775 12.0002 7.34864 11.9611 7.23903 11.8878C7.12942 11.8146 7.044 11.7105 6.99355 11.5887C6.9431 11.4669 6.9299 11.3328 6.95561 11.2035C6.98132 11.0742 7.04479 10.9555 7.138 10.8622L11.5287 6.47156C11.6537 6.34658 11.8232 6.27637 12 6.27637C12.1768 6.27637 12.3463 6.34658 12.4713 6.47156L16.862 10.8622C16.9552 10.9555 17.0187 11.0742 17.0444 11.2035C17.0701 11.3328 17.0569 11.4669 17.0065 11.5887C16.956 11.7105 16.8706 11.8146 16.761 11.8878C16.6514 11.9611 16.5225 12.0002 16.3907 12.0002H14V17.3336C14 17.5104 13.9298 17.6799 13.8047 17.805C13.6797 17.93 13.5101 18.0002 13.3333 18.0002H10.6667C10.4899 18.0002 10.3203 17.93 10.1953 17.805C10.0702 17.6799 10 17.5104 10 17.3336V17.3336Z" stroke="white" stroke-width="2" stroke-linecap="round" stroke-linejoin="round" shape-rendering="crispEdges"/>
</g>
</g>
<defs>
<filter id="filter0_d_217_849" x="1.94281" y="5.27637" width="20.1144" height="21.7236" filterUnits="userSpaceOnUse" color-interpolation-filters="sRGB">
<feFlood flood-opacity="0" result="BackgroundImageFix"/>
<feColorMatrix in="SourceAlpha" type="matrix" values="0 0 0 0 0 0 0 0 0 0 0 0 0 0 0 0 0 0 127 0" result="hardAlpha"/>
<feOffset dy="4"/>
<feGaussianBlur stdDeviation="2"/>
<feComposite in2="hardAlpha" operator="out"/>
<feColorMatrix type="matrix" values="0 0 0 0 0 0 0 0 0 0 0 0 0 0 0 0 0 0 0.25 0"/>
<feBlend mode="normal" in2="BackgroundImageFix" result="effect1_dropShadow_217_849"/>
<feBlend mode="normal" in="SourceGraphic" in2="effect1_dropShadow_217_849" result="shape"/>
</filter>
<clipPath id="clip0_217_849">
<rect x="4" y="4" width="16" height="16" fill="white"/>
</clipPath>
</defs>
</svg>
