<svg width="24" height="24" viewBox="0 0 24 24" fill="none" xmlns="http://www.w3.org/2000/svg">
<rect width="24" height="24" rx="10" fill="#FF3D00"/>
<path d="M16 7.99988C15.875 7.8749 15.7054 7.80469 15.5287 7.80469C15.3519 7.80469 15.1823 7.8749 15.0573 7.99988L12 11.0572L8.94265 7.99988C8.81763 7.8749 8.64809 7.80469 8.47132 7.80469C8.29454 7.80469 8.125 7.8749 7.99999 7.99988C7.875 8.1249 7.80479 8.29444 7.80479 8.47121C7.80479 8.64799 7.875 8.81753 7.99999 8.94255L11.0573 11.9999L7.99999 15.0572C7.875 15.1822 7.80479 15.3518 7.80479 15.5285C7.80479 15.7053 7.875 15.8749 7.99999 15.9999C8.125 16.1249 8.29454 16.1951 8.47132 16.1951C8.64809 16.1951 8.81763 16.1249 8.94265 15.9999L12 12.9425L15.0573 15.9999C15.1823 16.1249 15.3519 16.1951 15.5287 16.1951C15.7054 16.1951 15.875 16.1249 16 15.9999C16.125 15.8749 16.1952 15.7053 16.1952 15.5285C16.1952 15.3518 16.125 15.1822 16 15.0572L12.9427 11.9999L16 8.94255C16.125 8.81753 16.1952 8.64799 16.1952 8.47121C16.1952 8.29444 16.125 8.1249 16 7.99988V7.99988Z" fill="white"/>
</svg>
