<svg width="24" height="24" viewBox="0 0 24 24" fill="none" xmlns="http://www.w3.org/2000/svg">
<rect width="24" height="24" rx="10" fill="#00B6DE"/>
<g clip-path="url(#clip0_217_850)">
<path d="M14 6.66667V12H16.3907C16.5225 12 16.6514 12.0391 16.761 12.1124C16.8706 12.1857 16.956 12.2898 17.0065 12.4116C17.0569 12.5334 17.0701 12.6674 17.0444 12.7967C17.0187 12.926 16.9552 13.0448 16.862 13.138L12.4713 17.5287C12.3463 17.6536 12.1768 17.7239 12 17.7239C11.8232 17.7239 11.6537 17.6536 11.5287 17.5287L7.138 13.138C7.04479 13.0448 6.98132 12.926 6.95561 12.7967C6.9299 12.6674 6.9431 12.5334 6.99355 12.4116C7.044 12.2898 7.12942 12.1857 7.23903 12.1124C7.34864 12.0391 7.4775 12 7.60933 12H10V6.66667C10 6.48986 10.0702 6.32029 10.1953 6.19526C10.3203 6.07024 10.4899 6 10.6667 6H13.3333C13.5101 6 13.6797 6.07024 13.8047 6.19526C13.9298 6.32029 14 6.48986 14 6.66667V6.66667Z" stroke="white" stroke-width="2" stroke-linecap="round" stroke-linejoin="round"/>
</g>
<defs>
<clipPath id="clip0_217_850">
<rect width="16" height="16" fill="white" transform="translate(4 4)"/>
</clipPath>
</defs>
</svg>
